<svg width="24" height="24" viewBox="0 0 24 24" fill="none" xmlns="http://www.w3.org/2000/svg">
<circle cx="11.9999" cy="12" r="9.6" fill="#131313"/>
<path fill-rule="evenodd" clip-rule="evenodd" d="M10.8738 6.00194C10.6923 6.00194 10.5496 6.15702 10.5647 6.33785L11.1333 13.1613C11.1467 13.322 11.2811 13.4457 11.4424 13.4457H12.5836C12.7449 13.4457 12.8793 13.322 12.8927 13.1613L13.4613 6.33785C13.4764 6.15702 13.3337 6.00194 13.1522 6.00194H10.8738ZM11.9999 17.998C12.8221 17.998 13.4886 17.3315 13.4886 16.5094C13.4886 15.6872 12.8221 15.0207 11.9999 15.0207C11.1777 15.0207 10.5112 15.6872 10.5112 16.5094C10.5112 17.3315 11.1777 17.998 11.9999 17.998Z" fill="white"/>
</svg>
