<svg width="132" height="33" viewBox="0 0 132 33" fill="none" xmlns="http://www.w3.org/2000/svg">
<g clip-path="url(#clip0_2579_20374)">
<path d="M42.1006 5.71387H45.8311V16.746H62.1072V5.71387H65.8377V31.2099H62.1072V20.0987H45.8311V31.2099H42.1006V5.71387Z" fill="black"/>
<path d="M88.3526 22.7225H72.985C73.3083 26.6895 76.104 28.5853 79.1093 28.5853H79.616C82.1147 28.5853 83.8969 27.5672 84.5085 25.8206H88.1341C87.4789 29.3927 83.9668 31.5781 79.3976 31.5781C73.7451 31.5781 69.3594 28.3395 69.3594 21.9677C69.3594 15.5959 74.3217 12.647 79.2229 12.647C84.9541 12.647 88.3613 16.219 88.3613 21.3534V22.7401L88.3526 22.7225ZM84.5871 19.9228C84.4037 16.7895 82.1234 15.6222 79.4763 15.6222H78.9695C75.8157 15.6222 73.8237 17.2635 73.1685 19.9228H84.5871Z" fill="black"/>
<path d="M91.5059 5.71387H95.0616V31.2099H91.5059V5.71387Z" fill="black"/>
<path d="M101.152 5.52051C102.358 5.52051 103.336 6.50349 103.336 7.71466V7.79365C103.336 9.00482 102.358 9.9878 101.152 9.9878C99.9463 9.9878 98.9678 9.00482 98.9678 7.79365V7.71466C98.9678 6.50349 99.9463 5.52051 101.152 5.52051ZM99.3784 12.9982H102.934V31.2096H99.3784V12.9982Z" fill="black"/>
<path d="M106.044 22.1081C106.044 16.3507 110.246 12.6382 116.336 12.6382C122.425 12.6382 126.627 16.3507 126.627 22.1081C126.627 27.8656 122.381 31.5781 116.336 31.5781C110.29 31.5781 106.044 27.8656 106.044 22.1081ZM116.589 28.594C120.25 28.594 123.045 26.1541 123.045 22.1081C123.045 18.0621 120.258 15.6222 116.589 15.6222H116.082C112.387 15.6222 109.626 18.0621 109.626 22.1081C109.626 26.1541 112.378 28.594 116.082 28.594H116.589Z" fill="black"/>
<path d="M124.513 3.47526V2.90479H127.396V3.47526H126.304V6.41542H125.613V3.47526H124.521H124.513ZM128.767 3.82633V6.41542H128.077V2.90479H129.152L130.06 5.53776L130.934 2.90479H131.991V6.41542H131.301V3.82633L130.384 6.41542H129.693L128.767 3.82633Z" fill="black"/>
<path d="M17.3849 24.2319C17.3849 24.2319 14.7901 25.171 11.9857 26.0399C9.36475 26.8561 5.76531 27.9708 4.90039 28.2341C5.73036 29.0503 6.63022 29.77 7.59997 30.3931C8.10669 30.1649 8.49984 29.9543 9.03276 29.7085C10.7102 28.9186 15.2881 26.4875 17.3849 24.2319Z" fill="black"/>
<path d="M13.812 32.2188C13.611 32.2978 12.982 32.4645 12.5889 32.5611C14.8516 33.1052 17.2454 33.1579 19.613 32.6839C23.0465 30.8672 25.1083 27.7778 25.0996 27.7603C25.0996 27.7603 18.4773 31.0339 13.812 32.2188Z" fill="black"/>
<path d="M20.9495 26.0664C18.6868 27.0143 14.1525 28.6643 12.4664 29.226C10.4395 29.9018 8.61356 30.481 8.01074 30.6653C9.16396 31.3587 10.4045 31.8941 11.6976 32.289C12.0208 32.1749 12.5799 31.9555 13.2701 31.6132C16.8346 29.8491 19.5692 27.6637 20.9495 26.0664Z" fill="black"/>
<path d="M14.7903 21.9849C12.1519 22.6256 9.11156 23.3365 5.61695 24.4686C4.66467 24.7758 3.60755 25.1444 2.65527 25.5043C3.20567 26.3644 3.82597 27.1631 4.51615 27.8827C5.18013 27.6107 5.87031 27.3298 6.51681 27.0226C10.0464 25.3551 12.9556 23.4681 14.7903 21.9849Z" fill="black"/>
<path d="M12.894 19.3789C12.894 19.3789 4.53311 21.2308 1.1084 22.4595C1.4666 23.3986 1.90342 24.285 2.41014 25.1188C3.34495 24.7502 4.20986 24.364 5.14467 23.9427C7.55595 22.8457 11.2165 20.6954 12.894 19.3789Z" fill="black"/>
<path d="M11.6368 13.4277C9.28665 13.5067 5.8532 13.9807 2.0965 15.0251C1.40632 15.2182 0.707395 15.4464 0.0259465 15.6833C-0.0264725 16.6839 0.0259466 17.6932 0.156994 18.7112C1.10927 18.3602 2.14892 17.9477 3.07499 17.5527C6.45602 16.1221 9.2255 14.674 11.6455 13.4277H11.6368Z" fill="black"/>
<path d="M12.1345 10.0227C9.07668 9.68039 4.03571 10.8389 2.24473 11.3392C1.67685 11.4971 1.24003 11.5937 0.715838 11.7517C0.38385 12.8575 0.165438 13.9897 0.0693359 15.157C0.899305 14.7971 4.35023 13.2876 6.86634 12.1817C9.55719 11.0057 12.1345 10.0139 12.1345 10.0139V10.0227Z" fill="black"/>
<path d="M3.04835 18.2555C2.06986 18.5451 1.16126 18.8172 0.208984 19.1507C0.366242 20.1162 0.610864 21.0728 0.951588 22.0207C4.35009 20.7217 11.8897 16.6406 11.8897 16.6406C9.76673 16.7372 5.59068 17.5095 3.04835 18.2555Z" fill="black"/>
<path d="M15.7074 2.29939C15.7074 2.29939 12.1341 1.28131 8.35123 2.15897C6.237 3.35258 4.46348 4.9587 3.10059 6.85444C3.45878 6.67014 4.05287 6.38051 4.25381 6.3103C8.56091 4.16003 15.7074 2.29939 15.7074 2.29939Z" fill="black"/>
<path d="M13.6545 6.2924C11.5664 5.98522 8.08057 6.11687 4.22776 7.1174C3.48516 7.31048 2.91729 7.51235 2.59404 7.63522C1.8689 8.77618 1.28356 9.99612 0.855469 11.2775C1.43208 11.023 3.18812 10.2682 5.17131 9.45197C6.82251 8.77618 11.3218 7.05596 13.6545 6.2924Z" fill="black"/>
<path d="M31.8273 10.7686C28.6734 2.22901 19.2205 -2.13296 10.7199 1.03539C9.88989 1.34258 9.10361 1.72875 8.361 2.1588C12.1439 1.28992 15.7084 2.28167 15.7171 2.29922C15.7171 2.29922 8.57068 4.15986 4.26358 6.31013C4.06264 6.38034 3.47729 6.66997 3.11036 6.85428C2.92689 7.1088 2.76963 7.3721 2.60364 7.6354C2.92689 7.51252 3.49476 7.31066 4.23737 7.11758C8.08143 6.12582 11.576 5.98539 13.6641 6.29258C11.3314 7.05614 6.82338 8.76758 5.18091 9.45215C3.19772 10.2684 1.44168 11.0319 0.865073 11.2777C0.812654 11.4357 0.768971 11.5936 0.725288 11.7516C1.25822 11.5936 1.6863 11.4971 2.25418 11.3391C4.04516 10.8476 9.08613 9.68034 12.1439 10.0226C12.1439 10.0226 9.56664 11.0144 6.87579 12.1904C4.35968 13.2875 0.908755 14.7971 0.0787863 15.1657C0.0613132 15.3412 0.0351037 15.5168 0.0263672 15.6923C0.707815 15.4641 1.40674 15.2272 2.09692 15.0341C5.85362 13.9897 9.28707 13.5157 11.6372 13.4367C9.21718 14.6742 6.45644 16.1224 3.06667 17.5617C2.1406 17.9567 1.10096 18.3692 0.148678 18.7202C0.166151 18.8694 0.183624 19.0186 0.209834 19.1678C1.16211 18.8343 2.07071 18.5623 3.0492 18.2726C5.59153 17.5266 9.75884 16.7631 11.8906 16.6577C11.8906 16.6577 4.35094 20.7301 0.952438 22.0378C0.978647 22.1168 0.99612 22.187 1.02233 22.266C1.04854 22.345 1.08349 22.4064 1.11843 22.4854C4.53441 21.2479 12.904 19.4048 12.904 19.4048C11.2266 20.7213 7.56598 22.8716 5.1547 23.9686C4.22863 24.3899 3.36372 24.7761 2.42017 25.1447C2.4988 25.2764 2.57743 25.3992 2.66479 25.5221C3.61707 25.1623 4.67419 24.8024 5.62647 24.4865C9.12108 23.3543 12.1614 22.6434 14.7998 22.0027C12.9651 23.4859 10.0471 25.3729 6.52633 27.0405C5.87983 27.3476 5.19838 27.6285 4.52567 27.9006C4.64798 28.0322 4.77903 28.1463 4.90134 28.2692C5.76626 28.0059 9.35697 26.8912 11.9867 26.075C14.7911 25.2061 17.3858 24.267 17.3858 24.267C15.2891 26.5226 10.7111 28.9537 9.03371 29.7436C8.50079 29.9982 8.10764 30.2088 7.60093 30.4282C7.74071 30.516 7.87176 30.6125 8.01154 30.7003C8.61436 30.516 10.4403 29.9367 12.4672 29.2609C14.162 28.6992 18.6876 27.0492 20.9503 26.1014C19.5699 27.6987 16.8354 29.8841 13.2709 31.6482C12.5807 31.9905 12.0216 32.2099 11.6984 32.324C11.9954 32.4117 12.2924 32.5083 12.5982 32.5873C12.9914 32.4907 13.6291 32.324 13.8213 32.245C18.4866 31.0514 25.1089 27.7865 25.1089 27.7865C25.1089 27.804 23.0558 30.9022 19.6224 32.7101C20.4698 32.5434 21.3085 32.324 22.1385 32.0168C30.6479 28.8484 34.9899 19.3522 31.836 10.8037L31.8273 10.7686Z" fill="#FFD600"/>
</g>
<defs>
<clipPath id="clip0_2579_20374">
<rect width="132" height="33" fill="white"/>
</clipPath>
</defs>
</svg>
