<svg width="132" height="33" viewBox="0 0 132 33" fill="none" xmlns="http://www.w3.org/2000/svg">
    <g clip-path="url(#clip0_2579_18678)">
        <path d="M42.1011 5.71387H45.8316V16.746H62.1077V5.71387H65.8382V31.2099H62.1077V20.0987H45.8316V31.2099H42.1011V5.71387Z" fill="white"/>
        <path d="M88.3521 22.722H72.9845C73.3078 26.689 76.1035 28.5848 79.1088 28.5848H79.6156C82.1142 28.5848 83.8964 27.5667 84.508 25.8202H88.1337C87.4784 29.3922 83.9663 31.5776 79.3971 31.5776C73.7446 31.5776 69.3589 28.339 69.3589 21.9672C69.3589 15.5954 74.3212 12.6465 79.2224 12.6465C84.9536 12.6465 88.3608 16.2186 88.3608 21.3529V22.7396L88.3521 22.722ZM84.5866 19.9223C84.4032 16.789 82.1229 15.6217 79.4758 15.6217H78.9691C75.8152 15.6217 73.8232 17.263 73.168 19.9223H84.5866V19.9223Z" fill="white"/>
        <path d="M91.5063 5.71387H95.0621V31.2099H91.5063V5.71387V5.71387Z" fill="white"/>
        <path d="M101.151 5.52051C102.357 5.52051 103.336 6.50349 103.336 7.71466V7.79365C103.336 9.00482 102.357 9.9878 101.151 9.9878C99.9458 9.9878 98.9673 9.00482 98.9673 7.79365V7.71466C98.9673 6.50349 99.9458 5.52051 101.151 5.52051V5.52051ZM99.3779 12.9982H102.934V31.2096H99.3779V12.9982V12.9982Z" fill="white"/>
        <path d="M106.044 22.1086C106.044 16.3512 110.246 12.6387 116.336 12.6387C122.425 12.6387 126.627 16.3512 126.627 22.1086C126.627 27.8661 122.381 31.5786 116.336 31.5786C110.29 31.5786 106.044 27.8661 106.044 22.1086V22.1086ZM116.589 28.5945C120.25 28.5945 123.045 26.1546 123.045 22.1086C123.045 18.0626 120.258 15.6227 116.589 15.6227H116.082C112.387 15.6227 109.626 18.0626 109.626 22.1086C109.626 26.1546 112.378 28.5945 116.082 28.5945H116.589Z" fill="white"/>
        <path d="M124.513 3.47575V2.90527H127.396V3.47575H126.304V6.41591H125.613V3.47575H124.521H124.513ZM128.767 3.82682V6.41591H128.077V2.90527H129.152L130.06 5.53825L130.934 2.90527H131.991V6.41591H131.301V3.82682L130.384 6.41591H129.693L128.767 3.82682Z" fill="white"/>
        <path d="M17.3854 24.2314C17.3854 24.2314 14.7906 25.1705 11.9862 26.0394C9.36524 26.8556 5.76579 27.9703 4.90088 28.2336C5.73085 29.0498 6.63071 29.7695 7.60046 30.3926C8.10718 30.1644 8.50032 29.9538 9.03325 29.708C10.7107 28.9181 15.2886 26.487 17.3854 24.2314Z" fill="#292B2E"/>
        <path d="M13.812 32.2183C13.611 32.2973 12.982 32.464 12.5889 32.5606C14.8516 33.1047 17.2454 33.1574 19.613 32.6834C23.0465 30.8667 25.1083 27.7773 25.0996 27.7598C25.0996 27.7598 18.4773 31.0334 13.812 32.2183Z" fill="#292B2E"/>
        <path d="M20.9495 26.0654C18.6868 27.0133 14.1525 28.6633 12.4664 29.225C10.4395 29.9008 8.61356 30.4801 8.01074 30.6644C9.16396 31.3577 10.4045 31.8931 11.6976 32.288C12.0208 32.1739 12.5799 31.9545 13.2701 31.6122C16.8346 29.8481 19.5692 27.6628 20.9495 26.0654V26.0654Z" fill="#292B2E"/>
        <path d="M14.7903 21.9844C12.1519 22.6251 9.11156 23.336 5.61695 24.4682C4.66467 24.7753 3.60755 25.1439 2.65527 25.5038C3.20567 26.3639 3.82597 27.1626 4.51615 27.8822C5.18013 27.6102 5.87031 27.3293 6.51681 27.0221C10.0464 25.3546 12.9556 23.4676 14.7903 21.9844V21.9844Z" fill="#292B2E"/>
        <path d="M12.8944 19.3779C12.8944 19.3779 4.5336 21.2298 1.10889 22.4585C1.46708 23.3976 1.90391 24.284 2.41063 25.1178C3.34543 24.7492 4.21035 24.363 5.14516 23.9418C7.55643 22.8447 11.217 20.6944 12.8944 19.3779V19.3779Z" fill="#292B2E"/>
        <path d="M11.6368 13.4277C9.28665 13.5067 5.8532 13.9807 2.0965 15.0251C1.40632 15.2182 0.707395 15.4464 0.0259465 15.6833C-0.0264725 16.6839 0.0259466 17.6932 0.156994 18.7112C1.10927 18.3602 2.14892 17.9477 3.07499 17.5527C6.45602 16.1221 9.2255 14.674 11.6455 13.4277H11.6368Z" fill="#292B2E"/>
        <path d="M12.1345 10.0222C9.07668 9.6799 4.03571 10.8384 2.24473 11.3387C1.67685 11.4967 1.24003 11.5932 0.715838 11.7512C0.38385 12.857 0.165438 13.9892 0.0693359 15.1565C0.899305 14.7967 4.35023 13.2871 6.86634 12.1812C9.55719 11.0052 12.1345 10.0134 12.1345 10.0134V10.0222Z" fill="#292B2E"/>
        <path d="M3.04835 18.2545C2.06986 18.5442 1.16126 18.8162 0.208984 19.1498C0.366242 20.1152 0.610864 21.0718 0.951588 22.0197C4.35009 20.7208 11.8897 16.6396 11.8897 16.6396C9.76673 16.7362 5.59068 17.5085 3.04835 18.2545Z" fill="#292B2E"/>
        <path d="M15.7074 2.2989C15.7074 2.2989 12.1341 1.28082 8.35123 2.15848C6.237 3.3521 4.46348 4.95821 3.10059 6.85396C3.45878 6.66965 4.05287 6.38002 4.25381 6.30981C8.56091 4.15954 15.7074 2.2989 15.7074 2.2989V2.2989Z" fill="#292B2E"/>
        <path d="M13.655 6.29191C11.5669 5.98473 8.08106 6.11638 4.22825 7.11691C3.48565 7.31 2.91777 7.51186 2.59452 7.63473C1.86939 8.77569 1.28405 9.99563 0.855957 11.277C1.43257 11.0225 3.18861 10.2677 5.1718 9.45149C6.823 8.77569 11.3223 7.05547 13.655 6.29191V6.29191Z" fill="#292B2E"/>
        <path d="M31.8268 10.7686C28.6729 2.22901 19.22 -2.13296 10.7194 1.03539C9.8894 1.34258 9.10312 1.72875 8.36051 2.1588C12.1434 1.28992 15.7079 2.28167 15.7167 2.29922C15.7167 2.29922 8.57019 4.15986 4.26309 6.31013C4.06215 6.38034 3.4768 6.66997 3.10987 6.85428C2.9264 7.1088 2.76914 7.3721 2.60315 7.6354C2.9264 7.51252 3.49427 7.31066 4.23688 7.11758C8.08095 6.12582 11.5756 5.9854 13.6636 6.29258C11.3309 7.05614 6.82289 8.76758 5.18042 9.45215C3.19723 10.2684 1.44119 11.0319 0.864584 11.2777C0.812165 11.4357 0.768483 11.5936 0.7248 11.7516C1.25773 11.5936 1.68582 11.4971 2.25369 11.3391C4.04468 10.8476 9.08564 9.68034 12.1434 10.0226C12.1434 10.0226 9.56615 11.0144 6.87531 12.1904C4.35919 13.2875 0.908267 14.7971 0.078298 15.1657C0.060825 15.3412 0.0346154 15.5168 0.0258789 15.6923C0.707327 15.4641 1.40625 15.2272 2.09643 15.0341C5.85313 13.9897 9.28658 13.5157 11.6367 13.4367C9.21669 14.6742 6.45595 16.1224 3.06619 17.5617C2.14012 17.9567 1.10047 18.3692 0.14819 18.7202C0.165663 18.8694 0.183136 19.0186 0.209346 19.1678C1.16163 18.8343 2.07022 18.5623 3.04871 18.2726C5.59104 17.5266 9.75836 16.7631 11.8901 16.6577C11.8901 16.6577 4.35045 20.7301 0.951949 22.0378C0.978159 22.1168 0.995632 22.187 1.02184 22.266C1.04805 22.345 1.083 22.4064 1.11794 22.4854C4.53392 21.2479 12.9035 19.4048 12.9035 19.4048C11.2261 20.7213 7.56549 22.8716 5.15421 23.9686C4.22814 24.3899 3.36323 24.7761 2.41968 25.1447C2.49831 25.2764 2.57694 25.3992 2.66431 25.5221C3.61659 25.1623 4.6737 24.8024 5.62598 24.4865C9.12059 23.3543 12.1609 22.6434 14.7993 22.0027C12.9647 23.4859 10.0467 25.3729 6.52585 27.0405C5.87934 27.3476 5.1979 27.6285 4.52518 27.9006C4.64749 28.0322 4.77854 28.1463 4.90085 28.2692C5.76577 28.0059 9.35648 26.8912 11.9862 26.075C14.7906 25.2061 17.3853 24.267 17.3853 24.267C15.2886 26.5226 10.7106 28.9537 9.03323 29.7436C8.5003 29.9982 8.10715 30.2088 7.60044 30.4282C7.74022 30.516 7.87127 30.6125 8.01105 30.7003C8.61387 30.516 10.4398 29.9367 12.4667 29.2609C14.1616 28.6992 18.6871 27.0492 20.9498 26.1014C19.5695 27.6987 16.8349 29.8841 13.2704 31.6482C12.5803 31.9905 12.0211 32.2099 11.6979 32.324C11.9949 32.4117 12.2919 32.5083 12.5977 32.5873C12.9909 32.4907 13.6286 32.324 13.8208 32.245C18.4861 31.0514 25.1084 27.7865 25.1084 27.7865C25.1084 27.804 23.0553 30.9022 19.6219 32.7101C20.4693 32.5434 21.308 32.324 22.138 32.0168C30.6474 28.8484 34.9894 19.3522 31.8355 10.8037L31.8268 10.7686Z" fill="#FFD600"/>
    </g>
    <defs>
        <clipPath id="clip0_2579_18678">
            <rect width="132" height="33" fill="white"/>
        </clipPath>
    </defs>
</svg>
