<svg width="32" height="32" viewBox="0 0 32 32" fill="none" xmlns="http://www.w3.org/2000/svg">
<circle cx="16" cy="16" r="16" fill="#F3BA2F"/>
<path d="M18.1341 23.2105V25.6553L15.9696 26.909L13.8689 25.6553V23.2105L15.9696 24.4642L18.1341 23.2105ZM6.5459 14.7457L8.64668 15.9994V20.2005L12.2763 22.3318V24.7766L6.5459 21.4542V14.7457ZM25.3924 14.7457V21.4542L19.5983 24.7766V22.3318L23.2279 20.2005V15.9994L25.3924 14.7457ZM19.5983 11.4232L21.7627 12.677V15.1218L18.1331 17.2531V21.5169L16.0323 22.7706L13.9315 21.5169V17.2531L10.1745 15.1218V12.677L12.339 11.4232L15.9686 13.5546L19.5983 11.4232ZM10.1755 16.878L12.2763 18.1318V20.5766L10.1755 19.3228V16.878ZM21.7637 16.878V19.3228L19.663 20.5766V18.1318L21.7637 16.878ZM8.64668 9.29187L10.8111 10.5456L8.64668 11.7994V14.2442L6.5459 12.9904V10.5456L8.64668 9.29187ZM23.2905 9.29187L25.455 10.5456V12.9904L23.2905 14.2442V11.7994L21.1898 10.5456L23.2905 9.29187ZM15.9686 9.29187L18.1331 10.5456L15.9686 11.7994L13.8678 10.5456L15.9686 9.29187ZM15.9686 5.09082L21.7627 8.41324L19.6619 9.66699L16.0323 7.53562L12.339 9.66699L10.2382 8.41324L15.9686 5.09082Z" fill="white"/>
</svg>
