<svg width="25" height="24" viewBox="0 0 25 24" fill="none" xmlns="http://www.w3.org/2000/svg">
<path d="M12.6968 17.6191C12.6968 17.6191 10.8014 18.302 8.7528 18.9338C6.83826 19.5273 4.20895 20.3378 3.57715 20.5292C4.18342 21.1228 4.84075 21.6461 5.54913 22.0992C5.91928 21.9333 6.20646 21.7801 6.59575 21.6014C7.82106 21.027 11.1651 19.2593 12.6968 17.6191Z" fill="black"/>
<path d="M10.0849 23.426C9.93808 23.4835 9.47859 23.6047 9.19141 23.6749C10.8443 24.0706 12.5929 24.1089 14.3224 23.7643C16.8304 22.4432 18.3366 20.1968 18.3302 20.1841C18.3302 20.1841 13.4928 22.5645 10.0849 23.426Z" fill="black"/>
<path d="M15.2991 18.9536C13.6462 19.6428 10.3341 20.8426 9.10238 21.2511C7.6218 21.7425 6.288 22.1637 5.84766 22.2977C6.69006 22.8018 7.59627 23.1911 8.54078 23.4783C8.77691 23.3954 9.18535 23.2358 9.68951 22.9869C12.2933 21.7042 14.2908 20.1151 15.2991 18.9536Z" fill="black"/>
<path d="M10.8009 15.9858C8.87356 16.4517 6.65269 16.9686 4.09996 17.7919C3.40434 18.0153 2.63214 18.2833 1.93652 18.5449C2.33858 19.1704 2.79169 19.7511 3.29585 20.2744C3.78087 20.0766 4.28503 19.8724 4.75729 19.649C7.33554 18.4365 9.46069 17.0644 10.8009 15.9858Z" fill="black"/>
<path d="M9.41473 14.0889C9.41473 14.0889 3.30734 15.4354 0.805664 16.3289C1.06732 17.0117 1.38641 17.6563 1.75655 18.2626C2.43941 17.9945 3.07121 17.7137 3.75406 17.4074C5.51544 16.6097 8.18943 15.0461 9.41473 14.0889Z" fill="black"/>
<path d="M8.49611 9.76318C6.7794 9.82062 4.27134 10.1652 1.52716 10.9247C1.023 11.0651 0.512455 11.231 0.0146732 11.4033C-0.0236177 12.1308 0.0146732 12.8647 0.1104 13.605C0.806018 13.3498 1.56545 13.0498 2.24193 12.7626C4.71169 11.7224 6.73473 10.6694 8.50249 9.76318H8.49611Z" fill="black"/>
<path d="M8.86016 7.28597C6.62653 7.03708 2.94422 7.87948 1.63595 8.24324C1.22113 8.35811 0.902038 8.42831 0.519129 8.54319C0.27662 9.3473 0.117075 10.1706 0.046875 11.0193C0.653148 10.7577 3.17396 9.66001 5.01193 8.8559C6.97753 8.00073 8.86016 7.27959 8.86016 7.27959V7.28597Z" fill="black"/>
<path d="M2.2235 13.2724C1.50874 13.483 0.845032 13.6808 0.149414 13.9233C0.264287 14.6253 0.442978 15.321 0.691868 16.0102C3.1744 15.0657 8.6819 12.0981 8.6819 12.0981C7.13112 12.1683 4.08061 12.7299 2.2235 13.2724Z" fill="black"/>
<path d="M11.4707 1.67107C11.4707 1.67107 8.86052 0.930774 6.09719 1.56896C4.55279 2.43688 3.25728 3.60476 2.26172 4.98323C2.52337 4.84921 2.95734 4.63861 3.10412 4.58756C6.25035 3.02401 11.4707 1.67107 11.4707 1.67107Z" fill="black"/>
<path d="M9.97046 4.57423C8.4452 4.35087 5.89886 4.44659 3.08448 5.17412C2.54202 5.31452 2.1272 5.4613 1.89108 5.55065C1.36138 6.38028 0.933803 7.26736 0.621094 8.1991C1.04229 8.01403 2.32504 7.46519 3.77371 6.87168C4.97987 6.38028 8.26651 5.12945 9.97046 4.57423Z" fill="black"/>
<path d="M23.2445 7.82889C20.9406 1.61938 14.0355 -1.55238 7.82599 0.751457C7.21972 0.97482 6.64536 1.25562 6.1029 1.56833C8.86623 0.93653 11.47 1.65767 11.4764 1.67044C11.4764 1.67044 6.25606 3.02338 3.10983 4.58693C2.96305 4.63798 2.53547 4.84858 2.26743 4.9826C2.13341 5.16767 2.01854 5.35913 1.89728 5.55058C2.13341 5.46124 2.54823 5.31446 3.09068 5.17406C5.89868 4.45291 8.45141 4.3508 9.97666 4.57417C8.27272 5.12938 4.9797 6.37384 3.77992 6.87162C2.33125 7.46513 1.0485 8.02035 0.627303 8.19904C0.589012 8.31391 0.557103 8.42878 0.525194 8.54366C0.914485 8.42878 1.22719 8.35858 1.64201 8.24371C2.95028 7.88633 6.63259 7.03755 8.86623 7.28644C8.86623 7.28644 6.98359 8.00758 5.01799 8.86275C3.18003 9.66047 0.659212 10.7581 0.0529393 11.0262C0.0401757 11.1538 0.0210303 11.2815 0.0146484 11.4091C0.51243 11.2432 1.02298 11.0709 1.52714 10.9305C4.27132 10.171 6.77937 9.8264 8.49608 9.76896C6.72832 10.6688 4.71167 11.7218 2.23552 12.7684C1.55905 13.0556 0.799612 13.3555 0.103994 13.6108C0.116757 13.7193 0.129521 13.8278 0.148667 13.9363C0.844285 13.6938 1.50799 13.4959 2.22276 13.2853C4.07987 12.7429 7.12399 12.1877 8.68116 12.1111C8.68116 12.1111 3.17365 15.0723 0.691121 16.0231C0.710266 16.0806 0.72303 16.1316 0.742175 16.1891C0.761321 16.2465 0.786848 16.2912 0.812375 16.3486C3.30767 15.4488 9.42145 14.1086 9.42145 14.1086C8.19614 15.0659 5.52216 16.6294 3.76077 17.4271C3.0843 17.7335 2.4525 18.0143 1.76327 18.2823C1.8207 18.378 1.87814 18.4674 1.94196 18.5567C2.63757 18.2951 3.40977 18.0334 4.10539 17.8037C6.65812 16.9804 8.87899 16.4635 10.8063 15.9976C9.46612 17.0761 7.33459 18.4482 4.76272 19.6608C4.29046 19.8841 3.79268 20.0884 3.30128 20.2862C3.39063 20.3819 3.48636 20.4649 3.5757 20.5542C4.2075 20.3628 6.83043 19.5523 8.75136 18.9588C10.7999 18.327 12.6953 17.6441 12.6953 17.6441C11.1637 19.2843 7.81961 21.052 6.5943 21.6264C6.20501 21.8115 5.91783 21.9646 5.54768 22.1242C5.64979 22.188 5.74552 22.2582 5.84763 22.322C6.28797 22.188 7.62177 21.7668 9.10236 21.2754C10.3404 20.8669 13.6462 19.6672 15.2991 18.9779C14.2908 20.1394 12.2933 21.7285 9.68948 23.0112C9.18532 23.2601 8.77688 23.4197 8.54076 23.5026C8.75774 23.5665 8.97472 23.6367 9.19808 23.6941C9.48526 23.6239 9.95114 23.5026 10.0915 23.4452C13.4994 22.5773 18.3368 20.2032 18.3368 20.2032C18.3368 20.216 16.8371 22.4688 14.3291 23.7834C14.9481 23.6622 15.5608 23.5026 16.167 23.2793C22.3829 20.9754 25.5547 14.0703 23.2508 7.85442L23.2445 7.82889Z" fill="#FFD600"/>
</svg>
