<svg width="24" height="24" viewBox="0 0 24 24" fill="none" xmlns="http://www.w3.org/2000/svg">
<path d="M12 24C18.6274 24 24 18.6274 24 12C24 5.37258 18.6274 0 12 0C5.37258 0 0 5.37258 0 12C0 18.6274 5.37258 24 12 24Z" fill="#231F2D"/>
<path d="M7.72507 6.47613L11.9521 4.01562L16.1791 6.47613L14.625 7.38509L11.9521 5.83357L9.27912 7.38509L7.72507 6.47613ZM17.2825 15.1427L14.6095 16.6942V18.5122L18.8366 16.0517V11.1307L17.2825 12.0397V15.1427ZM15.7285 8.02765L17.2825 8.93661V10.7546L18.8366 9.8456V8.02765L17.2825 7.11866L15.7285 8.02765ZM10.398 17.3525V19.1704L11.9521 20.0794L13.5061 19.1704V17.3525L11.9521 18.2614L10.398 17.3525ZM6.62168 8.93661L8.17573 8.02765L6.62168 7.11866L5.06763 8.02765V9.8456L6.62168 10.7546V8.93661ZM6.62168 12.0397L5.06763 11.1307V16.0517L9.29464 18.5122V16.6942L6.62168 15.1427V12.0397Z" fill="#BCB2FE"/>
<path d="M11.9521 7.11914L7.7251 9.57965V14.5006L11.9521 16.9611L16.1791 14.5006V9.57965L11.9521 7.11914Z" fill="#BCB2FE"/>
<path d="M10.6883 10.6535C10.6883 11.4058 11.2426 11.982 11.9869 11.9987V10.7962C13.4544 10.8125 14.5602 11.9044 14.5602 13.3441C14.5602 14.7947 13.4377 15.8921 11.9536 15.8921C10.6598 15.8921 9.65141 15.0619 9.41357 13.9071H10.7264C10.9357 14.3748 11.3923 14.6897 11.9536 14.6897C12.7147 14.6897 13.2855 14.1075 13.2855 13.3441C13.2855 12.5918 12.7313 12.0156 11.9869 11.9989V13.2014C10.5194 13.1851 9.41357 12.0932 9.41357 10.6535C9.41357 9.20294 10.5361 8.10547 12.0202 8.10547C13.314 8.10547 14.3224 8.93574 14.5602 10.0905H13.2474C13.0381 9.62283 12.5815 9.30792 12.0202 9.30792C11.2591 9.30792 10.6883 9.89006 10.6883 10.6535Z" fill="#231F2D"/>
</svg>
