<svg width="32" height="32" viewBox="0 0 32 32" fill="none" xmlns="http://www.w3.org/2000/svg">
<mask id="mask0_331_3209" style="mask-type:luminance" maskUnits="userSpaceOnUse" x="0" y="0" width="32" height="32">
<path d="M32 0H0V32H32V0Z" fill="white"/>
</mask>
<g mask="url(#mask0_331_3209)">
<path d="M13.9003 0.55748C15.1995 -0.185827 16.8001 -0.185827 18.0993 0.55748L28.4461 6.47723C29.745 7.22053 30.5455 8.59424 30.5455 10.0809V21.9204C30.5455 23.407 29.745 24.7807 28.4461 25.524L18.0993 31.4437C16.8001 32.1869 15.1995 32.1869 13.9003 31.4437L3.55359 25.524C2.25442 24.7807 1.4541 23.407 1.4541 21.9204V10.0809C1.4541 8.59424 2.25442 7.22053 3.55359 6.47723L13.9003 0.55748Z" fill="#FFE81C"/>
<path d="M12.3281 14.4913L16.0004 10.819L19.6745 14.4929L21.8112 12.3561L16.0004 6.54553L10.1916 12.3544L12.3281 14.4913ZM6.5459 16.0001L8.6827 13.863L10.8193 15.9996L8.68254 18.1364L6.5459 16.0001ZM12.3281 17.5091L16.0004 21.1812L19.6744 17.5073L21.8123 19.6429L21.8112 19.6441L16.0004 25.4546L10.1916 19.6457L10.1885 19.6427L12.3284 17.5089L12.3281 17.5091ZM21.1815 16.001L23.3183 13.8642L25.455 16.0008L23.3182 18.1376L21.1815 16.001Z" fill="black"/>
<path d="M18.167 15.9989H18.168L15.9999 13.8307L14.3974 15.4327L14.2133 15.6169L13.8336 15.9967L13.8306 15.9996L13.8336 16.0027L15.9999 18.1694L18.1681 16.0012L18.1692 15.9999L18.167 15.9989Z" fill="black"/>
</g>
</svg>
