<svg width="32" height="32" viewBox="0 0 32 32" fill="none" xmlns="http://www.w3.org/2000/svg">
<g clip-path="url(#clip0_331_3247)">
<path d="M14.5001 0.0626469C11.4313 0.356396 8.36885 1.6064 5.96885 3.5439C5.1626 4.1939 3.84385 5.55015 3.2626 6.32515C1.5501 8.6064 0.493848 11.2126 0.112598 14.0626C0.0125977 14.8314 0.0125977 17.2439 0.112598 17.9689C0.518848 20.8376 1.56885 23.4251 3.24385 25.6564C3.81885 26.4189 5.14385 27.7876 5.90635 28.4064C8.20635 30.2751 11.0438 31.4876 14.0626 31.8876C14.8313 31.9876 17.2438 31.9876 17.9688 31.8876C20.8376 31.4814 23.4251 30.4314 25.6563 28.7564C26.4188 28.1814 27.7876 26.8564 28.4063 26.0939C30.2751 23.7939 31.4876 20.9564 31.8876 17.9376C31.9876 17.1689 31.9876 14.7564 31.8876 14.0314C31.4813 11.1626 30.4313 8.57515 28.7563 6.3439C28.1813 5.5814 26.8563 4.21265 26.0938 3.5939C23.8126 1.73765 20.9313 0.506395 18.0001 0.125147C17.2813 0.0313969 15.2313 -0.00610352 14.5001 0.0626469ZM10.7438 5.08765L11.8251 6.1689L11.1813 6.50015C9.1501 7.52515 7.4501 9.23765 6.44385 11.2751L6.16885 11.8251L5.08135 10.7376L4.0001 9.6564L6.8251 6.8314C8.38135 5.27515 9.65635 4.00015 9.65635 4.00015C9.65635 4.00015 10.1438 4.48765 10.7438 5.08765ZM27.5001 11.2189C26.7626 11.9564 26.1438 12.5626 26.1251 12.5626C26.1063 12.5626 26.0376 12.4126 25.9751 12.2314C25.7876 11.6876 25.2063 10.5814 24.8063 9.9939C23.8751 8.6314 22.5001 7.3939 21.0626 6.6064L20.8501 6.4939L22.0063 5.33765L23.1563 4.18765L26.0001 7.0314L28.8438 9.87515L27.5001 11.2189ZM18.4063 9.2814C19.4063 9.8564 20.2563 10.3626 20.3001 10.4064C20.3626 10.4626 20.2376 10.5626 19.6501 10.9001C19.0188 11.2689 18.9001 11.3189 18.7751 11.2564C18.6938 11.2251 18.0938 10.8814 17.4376 10.5001C16.7813 10.1251 16.2313 9.81265 16.2188 9.81265C16.2063 9.81265 15.6126 10.1501 14.9001 10.5626C14.1876 10.9751 13.5813 11.3126 13.5501 11.3126C13.4688 11.3126 12.0626 10.4939 12.0626 10.4439C12.0688 10.4251 13.0001 9.8689 14.1438 9.2064L16.2188 8.0064L16.4063 8.12515C16.5063 8.18765 17.4126 8.7064 18.4063 9.2814ZM11.6751 11.5626C12.0563 11.7876 12.3751 11.9814 12.3751 12.0001C12.3751 12.0189 12.0376 12.2251 11.6251 12.4626L10.8813 12.9001L10.8626 13.7876L10.8438 14.6751L10.1251 14.2564L9.40635 13.8376L9.39385 12.9001L9.3751 11.9689L10.1126 11.5501C10.5126 11.3189 10.8751 11.1314 10.9063 11.1439C10.9438 11.1501 11.2876 11.3376 11.6751 11.5626ZM16.9688 11.5439C17.3626 11.7751 17.6876 11.9814 17.6876 12.0001C17.6876 12.0564 16.2501 12.8876 16.1938 12.8626C15.9688 12.7751 14.7501 12.0251 14.7688 11.9814C14.7876 11.9251 16.1251 11.1314 16.2063 11.1251C16.2313 11.1251 16.5751 11.3126 16.9688 11.5439ZM22.3126 11.5501L23.0313 11.9751V12.9064V13.8376L22.3126 14.2564L21.5938 14.6751L21.5751 13.7814L21.5563 12.8876L20.8126 12.4626C20.4001 12.2251 20.0626 12.0189 20.0626 12.0001C20.0626 11.9564 21.4501 11.1314 21.5313 11.1314C21.5688 11.1251 21.9188 11.3189 22.3126 11.5501ZM15.0501 13.5251C16.0563 14.1064 16.2126 14.1814 16.3313 14.1189C16.4063 14.0751 16.9938 13.7376 17.6376 13.3689C18.2813 12.9939 18.8438 12.6876 18.8876 12.6876C18.9313 12.6876 19.2938 12.8814 19.6876 13.1126L20.4063 13.5376L20.4251 14.4376L20.4438 15.3439L19.0938 16.1189L17.7501 16.9001V18.4439V19.9876L17.0813 20.3814C16.7063 20.5939 16.3626 20.8001 16.3126 20.8314C16.2438 20.8689 16.0063 20.7626 15.4501 20.4376L14.6876 19.9876V18.4376V16.8939L13.3438 16.1189L12.0001 15.3501V14.4376L12.0063 13.5314L12.7688 13.0876L13.5313 12.6439L13.7188 12.7501C13.8251 12.8126 14.4188 13.1564 15.0501 13.5251ZM10.3313 15.6814L10.8751 16.0064V17.5501V19.0939L12.2188 19.8689L13.5626 20.6376V21.5314V22.4251L11.4876 21.2189L9.40635 20.0126L9.3876 17.5626L9.3751 15.1126L9.5751 15.2376C9.6876 15.3064 10.0251 15.5064 10.3313 15.6814ZM23.0188 20.0064C22.9876 20.0314 22.1126 20.5501 21.0626 21.1564C20.0126 21.7626 19.0938 22.3001 19.0188 22.3501L18.8751 22.4376V21.5376V20.6376L20.2188 19.8626L21.5563 19.0939L21.5751 17.5314L21.5938 15.9751L22.3126 15.5501L23.0313 15.1314L23.0501 17.5439C23.0563 18.8751 23.0438 19.9814 23.0188 20.0064ZM12.8188 17.1251L13.5626 17.5689V18.4376C13.5626 18.9189 13.5501 19.3126 13.5376 19.3126C13.5188 19.3126 13.1751 19.1189 12.7688 18.8814L12.0313 18.4501L12.0126 17.5689C12.0063 17.0814 12.0126 16.6876 12.0313 16.6876C12.0563 16.6876 12.4063 16.8876 12.8188 17.1251ZM20.4376 17.5626V18.4314L19.6938 18.8751C19.2813 19.1126 18.9313 19.3126 18.9063 19.3126C18.8876 19.3126 18.8813 18.9126 18.8876 18.4251L18.9063 17.5376L19.6251 17.1189C20.0188 16.8814 20.3626 16.6939 20.3938 16.6876C20.4188 16.6876 20.4376 17.0814 20.4376 17.5626ZM25.7001 25.7001L22.8751 28.5314L21.5251 27.1814L20.1751 25.8314L20.8188 25.5001C22.8501 24.4751 24.5501 22.7626 25.5563 20.7251L25.8313 20.1751L27.1813 21.5251L28.5313 22.8751L25.7001 25.7001ZM6.63135 21.0751C6.7751 21.4314 7.53135 22.5064 8.0251 23.0751C9.0876 24.2814 10.7563 25.4439 12.1563 25.9439C12.3813 26.0251 12.5626 26.1064 12.5626 26.1251C12.5626 26.1439 11.9876 26.7314 11.2813 27.4376L10.0001 28.7189L7.1876 25.9064C5.6376 24.3626 4.3751 23.0689 4.3751 23.0314C4.3751 22.9626 6.44385 20.8751 6.50635 20.8751C6.53135 20.8751 6.5876 20.9689 6.63135 21.0751ZM15.6376 21.8689C15.9376 22.0439 16.1938 22.1876 16.2126 22.1876C16.2251 22.1876 16.4438 22.0689 16.7001 21.9189C16.9501 21.7689 17.2876 21.5751 17.4563 21.4814L17.7501 21.3064V22.2064V23.1001L17.0063 23.5314C16.5938 23.7689 16.2438 23.9564 16.2188 23.9564C16.1938 23.9564 15.8438 23.7626 15.4313 23.5251L14.6876 23.1001V22.2001V21.3001L14.8938 21.4251C15.0001 21.4939 15.3376 21.6939 15.6376 21.8689Z" fill="black"/>
</g>
<defs>
<clipPath id="clip0_331_3247">
<rect width="32" height="32" fill="white"/>
</clipPath>
</defs>
</svg>
