<svg width="32" height="32" viewBox="0 0 32 32" fill="none" xmlns="http://www.w3.org/2000/svg">
<g clip-path="url(#clip0_331_3256)">
<path d="M16 32.0002C24.8366 32.0002 32 24.8368 32 16.0002C32 7.16369 24.8366 0.000244141 16 0.000244141C7.16344 0.000244141 0 7.16369 0 16.0002C0 24.8368 7.16344 32.0002 16 32.0002Z" fill="#F0B90B"/>
<path d="M10.3006 8.63539L15.9366 5.35474L21.5726 8.63539L19.5006 9.84736L15.9366 7.77867L12.3727 9.84736L10.3006 8.63539ZM21.5726 12.7728L19.5006 11.5608L15.9366 13.6296L12.3727 11.5608L10.3006 12.7728V15.1968L13.8646 17.2654V21.4028L15.9366 22.6148L18.0087 21.4028V17.2654L21.5726 15.1968V12.7728ZM21.5726 19.3341V16.9102L19.5006 18.1221V20.5461L21.5726 19.3341ZM23.0438 20.1909L19.4799 22.2596V24.6834L25.1159 21.4028V14.8414L23.0438 16.0534V20.1909ZM20.9718 10.7041L23.0438 11.9161V14.34L25.1159 13.128V10.7041L23.0438 9.49212L20.9718 10.7041ZM13.8646 23.1372V25.561L15.9366 26.773L18.0087 25.561V23.1372L15.9366 24.3492L13.8646 23.1372ZM10.3006 19.3341L12.3727 20.5461V18.1221L10.3006 16.9102V19.3341ZM13.8646 10.7041L15.9366 11.9161L18.0087 10.7041L15.9366 9.49212L13.8646 10.7041ZM8.82939 11.9161L10.9015 10.7041L8.82939 9.49212L6.75732 10.7041V13.128L8.82939 14.34V11.9161ZM8.82939 16.0534L6.75732 14.8414V21.4028L12.3934 24.6834V22.2596L8.82939 20.1909V16.0534Z" fill="white"/>
</g>
<defs>
<clipPath id="clip0_331_3256">
<rect width="32" height="32" fill="white" transform="translate(0 0.000244141)"/>
</clipPath>
</defs>
</svg>
