<svg width="66" height="32" viewBox="0 0 66 32" fill="none" xmlns="http://www.w3.org/2000/svg">
<circle cx="16" cy="16" r="16" fill="url(#paint0_linear_4327_21166)"/>
<path d="M25.4545 7.27344H21.0908V25.4553H25.4545V7.27344Z" fill="white"/>
<path d="M10.909 7.27344H6.54541V25.4553H10.909V7.27344Z" fill="white"/>
<path d="M19.6363 17.457H12.3635V20.3661H19.6363V17.457Z" fill="white"/>
<path d="M19.6363 12.3633H12.3635V15.2724H19.6363V12.3633Z" fill="white"/>
<circle cx="50" cy="16" r="16" fill="#F3BA2F"/>
<path d="M52.1336 23.2095V25.6543L49.9692 26.908L47.8684 25.6543V23.2095L49.9692 24.4632L52.1336 23.2095ZM40.5454 14.7447L42.6462 15.9984V20.1995L46.2758 22.3308V24.7756L40.5454 21.4532V14.7447ZM59.3919 14.7447V21.4532L53.5978 24.7756V22.3308L57.2274 20.1995V15.9984L59.3919 14.7447ZM53.5978 11.4223L55.7622 12.676V15.1208L52.1326 17.2522V21.5159L50.0318 22.7697L47.931 21.5159V17.2522L44.174 15.1208V12.676L46.3385 11.4223L49.9681 13.5536L53.5978 11.4223ZM44.1751 16.8771L46.2758 18.1308V20.5756L44.1751 19.3219V16.8771ZM55.7632 16.8771V19.3219L53.6625 20.5756V18.1308L55.7632 16.8771ZM42.6462 9.2909L44.8106 10.5446L42.6462 11.7984V14.2432L40.5454 12.9894V10.5446L42.6462 9.2909ZM57.2901 9.2909L59.4545 10.5446V12.9894L57.2901 14.2432V11.7984L55.1893 10.5446L57.2901 9.2909ZM49.9681 9.2909L52.1326 10.5446L49.9681 11.7984L47.8673 10.5446L49.9681 9.2909ZM49.9681 5.08984L55.7622 8.41227L53.6614 9.66601L50.0318 7.53464L46.3385 9.66601L44.2377 8.41227L49.9681 5.08984Z" fill="white"/>
<defs>
<linearGradient id="paint0_linear_4327_21166" x1="16.1135" y1="32" x2="17.0213" y2="-2.87878e-07" gradientUnits="userSpaceOnUse">
<stop stop-color="#FFA24B"/>
<stop offset="1" stop-color="#F4C54D"/>
</linearGradient>
</defs>
</svg>
