<svg width="66" height="32" viewBox="0 0 66 32" fill="none" xmlns="http://www.w3.org/2000/svg">
<circle cx="16" cy="16" r="16" fill="url(#paint0_linear_4308_21061)"/>
<path d="M25.4545 7.27344H21.0908V25.4553H25.4545V7.27344Z" fill="white"/>
<path d="M10.909 7.27344H6.54541V25.4553H10.909V7.27344Z" fill="white"/>
<path d="M19.6363 17.457H12.3635V20.3661H19.6363V17.457Z" fill="white"/>
<path d="M19.6363 12.3633H12.3635V15.2724H19.6363V12.3633Z" fill="white"/>
<path d="M50 32C58.8366 32 66 24.8366 66 16C66 7.16344 58.8366 0 50 0C41.1634 0 34 7.16344 34 16C34 24.8366 41.1634 32 50 32Z" fill="black"/>
<path d="M58.4279 16.0029C58.4279 14.2887 57.913 12.6937 57.0308 11.361L59.6474 8.74438L57.2943 6.39123L54.6848 9.00068C53.3449 8.10066 51.7333 7.57496 50.0012 7.57496C48.287 7.57496 46.692 8.08993 45.3592 8.97207L42.7415 6.35547L40.3883 8.70862L42.9977 11.3181C42.0977 12.658 41.572 14.2696 41.572 16.0017C41.572 17.7159 42.087 19.3109 42.9691 20.6437L40.3525 23.2614L42.7057 25.6146L45.3151 23.0051C46.655 23.9052 48.2667 24.4309 49.9988 24.4309C51.713 24.4309 53.308 23.9159 54.6407 23.0338L57.2585 25.6516L59.6117 23.2984L57.0022 20.689C57.9022 19.3467 58.4279 17.735 58.4279 16.0029ZM44.9015 16.0029C44.9015 13.1908 47.1891 10.9032 50.0012 10.9032C52.8133 10.9032 55.1009 13.1908 55.1009 16.0029C55.1009 18.815 52.8133 21.1026 50.0012 21.1026C47.1891 21.1026 44.9015 18.815 44.9015 16.0029Z" fill="white"/>
<defs>
<linearGradient id="paint0_linear_4308_21061" x1="16.1135" y1="32" x2="17.0213" y2="-2.87878e-07" gradientUnits="userSpaceOnUse">
<stop stop-color="#FFA24B"/>
<stop offset="1" stop-color="#F4C54D"/>
</linearGradient>
</defs>
</svg>
