<svg width="66" height="32" viewBox="0 0 66 32" fill="none" xmlns="http://www.w3.org/2000/svg">
<circle cx="16" cy="16" r="16" fill="url(#paint0_linear_4308_21024)"/>
<path d="M25.4545 7.27344H21.0908V25.4553H25.4545V7.27344Z" fill="white"/>
<path d="M10.909 7.27344H6.54541V25.4553H10.909V7.27344Z" fill="white"/>
<path d="M19.6363 17.457H12.3635V20.3661H19.6363V17.457Z" fill="white"/>
<path d="M19.6363 12.3633H12.3635V15.2724H19.6363V12.3633Z" fill="white"/>
<path d="M50 32C58.8366 32 66 24.8366 66 16C66 7.16344 58.8366 0 50 0C41.1634 0 34 7.16344 34 16C34 24.8366 41.1634 32 50 32Z" fill="black"/>
<path d="M50.3933 12.9961V20.3679L57.6101 15.9942L50.3933 12.9961Z" fill="white"/>
<path d="M50.3933 12.1644L57.5446 15.1362L55.8351 12.3492L59.4698 8.71453L57.2978 6.54138L54.1841 9.65627L50.3933 3.47656V12.1644Z" fill="white"/>
<path d="M49.6255 20.3679V12.9961L42.4087 15.9942L49.6255 20.3679Z" fill="white"/>
<path d="M42.4743 15.1362L49.6255 12.1644V3.47656L45.8359 9.65627L42.721 6.54138L40.5491 8.71453L44.1837 12.348L42.4743 15.1362Z" fill="white"/>
<path d="M57.5291 18.2891L50.3933 22.6139V28.3418L53.3294 24.2041L56.3942 27.2689L58.5662 25.097L55.133 21.6638L57.5291 18.2891Z" fill="white"/>
<path d="M49.6255 22.6139L42.4897 18.2891L44.8858 21.6638L41.4526 25.097L43.6246 27.2689L46.6894 24.2053L49.6255 28.3406V22.6139Z" fill="white"/>
<defs>
<linearGradient id="paint0_linear_4308_21024" x1="16.1135" y1="32" x2="17.0213" y2="-2.87878e-07" gradientUnits="userSpaceOnUse">
<stop stop-color="#FFA24B"/>
<stop offset="1" stop-color="#F4C54D"/>
</linearGradient>
</defs>
</svg>
