<svg width="66" height="33" viewBox="0 0 66 33" fill="none" xmlns="http://www.w3.org/2000/svg">
<circle cx="16" cy="16" r="16" fill="url(#paint0_linear_4323_21120)"/>
<path d="M25.4545 7.27344H21.0908V25.4553H25.4545V7.27344Z" fill="white"/>
<path d="M10.909 7.27344H6.54541V25.4553H10.909V7.27344Z" fill="white"/>
<path d="M19.6363 17.457H12.3635V20.3661H19.6363V17.457Z" fill="white"/>
<path d="M19.6363 12.3633H12.3635V15.2724H19.6363V12.3633Z" fill="white"/>
<g clip-path="url(#clip0_4323_21120)">
<ellipse cx="50" cy="16" rx="16" ry="16" fill="#50AF95"/>
<path fill-rule="evenodd" clip-rule="evenodd" d="M39.8589 4.13831L34.024 16.5369C34.0018 16.583 33.9947 16.6351 34.0039 16.6855C34.0131 16.736 34.0379 16.7821 34.0749 16.8173L49.8336 32.0932C49.8784 32.1366 49.938 32.1609 50 32.1609C50.062 32.1609 50.1216 32.1366 50.1664 32.0932L65.9251 16.8182C65.9621 16.7831 65.9869 16.7369 65.9961 16.6865C66.0052 16.636 65.9982 16.5839 65.976 16.5378L60.1411 4.13926C60.1223 4.09762 60.092 4.06235 60.0539 4.03766C60.0157 4.01296 59.9714 3.9999 59.9261 4.00002H40.0757C40.0303 3.99945 39.9856 4.0122 39.9471 4.03674C39.9086 4.06127 39.878 4.09655 39.8589 4.13831Z" fill="#50AF95"/>
<path fill-rule="evenodd" clip-rule="evenodd" d="M52.0246 17.813C51.9115 17.8216 51.327 17.8569 50.0231 17.8569C48.986 17.8569 48.2497 17.8254 47.9914 17.813C43.9836 17.6347 40.9921 16.9289 40.9921 16.0839C40.9921 15.2389 43.9836 14.5341 47.9914 14.3529V17.1101C48.2535 17.1292 49.004 17.174 50.041 17.174C51.2855 17.174 51.9087 17.1216 52.0209 17.1111V14.3548C56.0202 14.5351 59.0051 15.2408 59.0051 16.0839C59.0051 16.927 56.0211 17.6328 52.0209 17.8121L52.0246 17.813ZM52.0246 14.0696V11.6023H57.606V7.83984H42.4101V11.6023H47.9905V14.0687C43.4547 14.2795 40.0437 15.1884 40.0437 16.2775C40.0437 17.3667 43.4547 18.2747 47.9905 18.4864V26.3928H52.0237V18.4835C56.5491 18.2727 59.9544 17.3648 59.9544 16.2766C59.9544 15.1884 56.5519 14.2804 52.0237 14.0687L52.0246 14.0696Z" fill="white"/>
</g>
<defs>
<linearGradient id="paint0_linear_4323_21120" x1="16.1135" y1="32" x2="17.0213" y2="-2.87878e-07" gradientUnits="userSpaceOnUse">
<stop stop-color="#FFA24B"/>
<stop offset="1" stop-color="#F4C54D"/>
</linearGradient>
<clipPath id="clip0_4323_21120">
<rect width="32" height="32.1609" fill="white" transform="translate(34)"/>
</clipPath>
</defs>
</svg>
