<svg width="66" height="32" viewBox="0 0 66 32" fill="none" xmlns="http://www.w3.org/2000/svg">
<circle cx="16" cy="16" r="16" fill="url(#paint0_linear_4334_21206)"/>
<path d="M25.4545 7.27344H21.0908V25.4553H25.4545V7.27344Z" fill="white"/>
<path d="M10.909 7.27344H6.54541V25.4553H10.909V7.27344Z" fill="white"/>
<path d="M19.6363 17.457H12.3635V20.3661H19.6363V17.457Z" fill="white"/>
<path d="M19.6363 12.3633H12.3635V15.2724H19.6363V12.3633Z" fill="white"/>
<g clip-path="url(#clip0_4334_21206)">
<path d="M65.5177 19.8705C63.3808 28.442 54.6992 33.6584 46.1267 31.521C37.5578 29.3841 32.3413 20.702 34.4792 12.1312C36.6152 3.5587 45.2967 -1.65814 53.8666 0.478775C62.4385 2.61569 67.6546 11.2987 65.5175 19.8706L65.5176 19.8705H65.5177Z" fill="#F7931A"/>
<path d="M57.0534 13.7204C57.3719 11.5912 55.7508 10.4466 53.5341 9.68311L54.2532 6.79885L52.4975 6.36137L51.7975 9.16969C51.3359 9.05457 50.8619 8.94609 50.3908 8.83856L51.0959 6.01171L49.3412 5.57422L48.6217 8.45754C48.2398 8.37057 47.8646 8.28462 47.5006 8.19406L47.5027 8.18499L45.0815 7.58037L44.6144 9.45561C44.6144 9.45561 45.917 9.7542 45.8896 9.77258C46.6006 9.95003 46.7291 10.4207 46.7078 10.7937L45.8887 14.0796C45.9376 14.092 46.0011 14.11 46.0712 14.1381C46.0126 14.1236 45.9503 14.1077 45.8856 14.0922L44.7375 18.6952C44.6506 18.9112 44.43 19.2354 43.9329 19.1123C43.9505 19.1378 42.6568 18.7939 42.6568 18.7939L41.7852 20.8036L44.07 21.3732C44.495 21.4798 44.9115 21.5913 45.3217 21.6962L44.5952 24.6135L46.3489 25.051L47.0684 22.1646C47.5475 22.2947 48.0124 22.4147 48.4676 22.5278L47.7505 25.4005L49.5063 25.838L50.2328 22.9261C53.2267 23.4927 55.4779 23.2643 56.4254 20.5563C57.1889 18.3761 56.3874 17.1185 54.8123 16.2984C55.9595 16.0339 56.8236 15.2793 57.054 13.7207L57.0535 13.7203L57.0534 13.7204ZM53.042 19.3455C52.4994 21.5258 48.8285 20.3472 47.6384 20.0517L48.6025 16.1867C49.7926 16.4838 53.609 17.0718 53.042 19.3455H53.042ZM53.585 13.6888C53.09 15.672 50.0347 14.6645 49.0436 14.4174L49.9177 10.9121C50.9088 11.1592 54.1006 11.6203 53.5851 13.6888H53.585Z" fill="white"/>
</g>
<defs>
<linearGradient id="paint0_linear_4334_21206" x1="16.1135" y1="32" x2="17.0213" y2="-2.87878e-07" gradientUnits="userSpaceOnUse">
<stop stop-color="#FFA24B"/>
<stop offset="1" stop-color="#F4C54D"/>
</linearGradient>
<clipPath id="clip0_4334_21206">
<rect width="31.9964" height="32" fill="white" transform="translate(34)"/>
</clipPath>
</defs>
</svg>
