<svg width="66" height="32" viewBox="0 0 66 32" fill="none" xmlns="http://www.w3.org/2000/svg">
<circle cx="16" cy="16" r="16" fill="url(#paint0_linear_4327_21136)"/>
<path d="M25.4545 7.27344H21.0908V25.4553H25.4545V7.27344Z" fill="white"/>
<path d="M10.909 7.27344H6.54541V25.4553H10.909V7.27344Z" fill="white"/>
<path d="M19.6363 17.457H12.3635V20.3661H19.6363V17.457Z" fill="white"/>
<path d="M19.6363 12.3633H12.3635V15.2724H19.6363V12.3633Z" fill="white"/>
<circle cx="50" cy="16" r="16" fill="#F3BA2F"/>
<g clip-path="url(#clip0_4327_21136)">
<path d="M49.9985 5.33203L52.6582 7.99236L45.9832 14.6692L43.3229 12.0089L49.9985 5.33203ZM43.3357 19.9987L45.9953 22.659L56.662 11.9924L54.0022 9.33203L43.3357 19.9987ZM47.3357 23.9987L49.9979 26.6654L60.6646 15.9987L58.0049 13.3384L47.3357 23.9987ZM44.6537 15.9987L41.9934 13.3384L39.3337 15.9987L41.9934 18.6584L44.6537 15.9987Z" fill="#292B2E"/>
</g>
<defs>
<linearGradient id="paint0_linear_4327_21136" x1="16.1135" y1="32" x2="17.0213" y2="-2.87878e-07" gradientUnits="userSpaceOnUse">
<stop stop-color="#FFA24B"/>
<stop offset="1" stop-color="#F4C54D"/>
</linearGradient>
<clipPath id="clip0_4327_21136">
<rect width="21.3333" height="21.3333" fill="white" transform="translate(39.3333 5.33203)"/>
</clipPath>
</defs>
</svg>
