<svg width="24" height="24" viewBox="0 0 24 24" fill="none" xmlns="http://www.w3.org/2000/svg">
<path d="M12.6742 17.625C12.6742 17.625 10.7627 18.3082 8.73652 18.9466L3.56909 20.5428C4.16969 21.1329 4.82947 21.6592 5.53794 22.1135C5.9075 21.9475 6.17511 21.7942 6.5829 21.6091C7.80626 21.0345 11.145 19.2723 12.6742 17.625Z" fill="black"/>
<path d="M10.0678 23.4309C9.7752 23.5301 9.47742 23.6132 9.17578 23.68C10.8487 24.0767 12.5874 24.1072 14.2731 23.7693C15.8632 22.8984 17.2322 21.6729 18.2745 20.1875C15.6324 21.4925 12.8876 22.5773 10.0678 23.4309Z" fill="black"/>
<path d="M15.2739 18.9609C13.6236 19.6505 10.3231 20.8764 9.08696 21.2658C7.60873 21.7575 6.27705 22.1725 5.8374 22.3065C6.68123 22.8123 7.58441 23.2112 8.52625 23.4941C8.91781 23.3528 9.30077 23.1887 9.67315 23.0025C11.774 22.015 13.6733 20.6445 15.2739 18.9609Z" fill="black"/>
<path d="M10.7883 15.9844C8.87675 16.4505 6.64666 16.974 4.09799 17.7913C3.40347 18.0211 2.6325 18.2829 1.93799 18.5447C2.33165 19.1732 2.78624 19.7613 3.29516 20.3005C3.7794 20.1025 4.28277 19.8982 4.75427 19.662C6.89729 18.6675 8.92144 17.4339 10.7883 15.9844Z" fill="black"/>
<path d="M9.43109 14.0938C9.43109 14.0938 3.33339 15.4345 0.835693 16.3348C1.09636 16.9995 1.41401 17.6404 1.78507 18.2502C2.42224 18.0012 3.05941 17.7458 3.75392 17.4138C5.7446 16.4852 7.64511 15.3738 9.43109 14.0938Z" fill="black"/>
<path d="M8.48802 9.76562C6.13036 9.88911 3.79415 10.2789 1.52377 10.9276C1.02041 11.0617 0.510675 11.2341 0.0136834 11.4001C-0.0212505 12.1357 0.01074 12.873 0.109259 13.6029C0.803772 13.3475 1.562 13.0474 2.2374 12.7601C4.70324 11.7194 6.72306 10.6659 8.48802 9.76562Z" fill="black"/>
<path d="M8.85254 7.28745C6.62245 7.03845 2.93962 7.88124 1.6398 8.24517C1.22564 8.36009 0.907052 8.43032 0.518379 8.54525C0.275112 9.3522 0.117078 10.1825 0.046875 11.0225L5.00404 8.8581C6.96652 8.00255 8.85254 7.28745 8.85254 7.28745Z" fill="black"/>
<path d="M2.2246 13.2764C1.51098 13.4807 0.848322 13.685 0.153809 13.9148C0.270514 14.6258 0.451798 15.3247 0.695401 16.0026C3.16761 15.0641 8.66637 12.1016 8.66637 12.1016C6.48715 12.2902 4.33042 12.6835 2.2246 13.2764Z" fill="black"/>
<path d="M11.4575 1.671C9.70125 1.22246 7.86547 1.18532 6.09256 1.56246C4.58634 2.41261 3.28032 3.57759 2.26318 4.9783C2.52442 4.84422 2.9577 4.63352 3.10425 4.58244C5.80437 3.3843 8.5982 2.41054 11.4575 1.671Z" fill="black"/>
<path d="M9.95348 4.57589C7.63817 4.34623 5.30042 4.54974 3.05932 5.17606C2.65741 5.27878 2.26171 5.40456 1.87419 5.55276C1.34318 6.38061 0.915221 7.27044 0.599854 8.20243C1.02038 8.01727 2.30109 7.46818 3.74746 6.8744C4.97083 6.37639 8.25224 5.13136 9.95348 4.57589Z" fill="black"/>
<path d="M23.2132 7.83094C22.6663 6.35253 21.834 4.9966 20.7639 3.84058C19.6939 2.68457 18.4071 1.75113 16.9769 1.09359C15.5468 0.43605 14.0014 0.0672917 12.429 0.00838141C10.8566 -0.0505289 9.288 0.201563 7.81285 0.750256C7.21914 0.975082 6.64392 1.2462 6.0925 1.56112C7.86541 1.18397 9.70118 1.22111 11.4575 1.66966C8.59814 2.4092 5.80431 3.38296 3.10418 4.5811C2.95763 4.63218 2.52436 4.84288 2.26312 4.97696C2.12931 5.16211 2.01462 5.36004 1.89356 5.55158C2.27483 5.40407 2.66413 5.27831 3.05958 5.17488C5.29458 4.55094 7.62562 4.34745 9.93462 4.57472C8.2525 5.13019 4.97108 6.37521 3.76684 6.89238C2.32046 7.48616 1.03976 8.03525 0.619226 8.2204C0.580996 8.33533 0.555509 8.45025 0.517279 8.56518C0.905951 8.45025 1.22454 8.38002 1.63869 8.2651C2.91303 7.90117 6.62135 7.05838 8.85144 7.30739C8.85144 7.30739 6.93993 8.02248 5.02843 8.87803L0.0457744 11.0233C0.0457744 11.151 0.0457744 11.2723 0.013916 11.4C0.510907 11.234 1.02064 11.0616 1.524 10.9275C3.79438 10.2788 6.13059 9.889 8.48825 9.76551C6.7233 10.6658 4.70347 11.7192 2.23763 12.76C1.56223 13.0473 0.804004 13.3474 0.109491 13.6027C0.109491 13.7113 0.109491 13.8198 0.154093 13.9284C0.848606 13.6857 1.51126 13.4814 2.22489 13.2899C4.33029 12.6928 6.48703 12.2952 8.66666 12.1023C8.66666 12.1023 3.1679 15.0648 0.695686 16.0162C0.695686 16.0673 0.727544 16.1247 0.746659 16.1758C0.765774 16.2269 0.791261 16.2843 0.810376 16.3354C3.30807 15.4352 9.43126 14.0944 9.43126 14.0944C7.65339 15.373 5.76146 16.4845 3.77958 17.4144C3.05958 17.7464 2.42241 18.0018 1.78524 18.27C1.84259 18.3658 1.90631 18.4551 1.96365 18.5445C2.65816 18.2828 3.42914 18.021 4.12365 17.7911C6.67232 16.9739 8.88967 16.4503 10.8139 15.9842C8.9391 17.4354 6.90633 18.6691 4.75445 19.6619C4.28294 19.8853 3.77958 20.0896 3.29533 20.3003C3.38454 20.3961 3.48011 20.4791 3.56931 20.5685L8.73675 18.9723C10.7821 18.3338 12.6744 17.6507 12.6744 17.6507C11.1452 19.2979 7.80648 21.0601 6.58312 21.6347C6.19445 21.8199 5.90772 21.9731 5.53816 22.1391C5.64011 22.203 5.73568 22.2732 5.83763 22.3307C6.27728 22.1966 7.60896 21.7816 9.08719 21.29C10.3233 20.875 13.6238 19.6746 15.2741 18.9851C13.6729 20.6664 11.7738 22.0347 9.67338 23.0202C9.301 23.2064 8.91804 23.3706 8.52648 23.5119C8.74312 23.5821 8.95975 23.6523 9.16365 23.7034C9.47009 23.6288 9.77215 23.5371 10.0684 23.4289C12.8969 22.5766 15.6503 21.4917 18.3006 20.1854C17.2583 21.6708 15.8893 22.8963 14.2992 23.7673C16.0105 23.4453 17.6304 22.7508 19.0445 21.7328C20.4586 20.7149 21.6325 19.3983 22.4833 17.876C23.334 16.3537 23.8409 14.6628 23.9681 12.9227C24.0954 11.1826 23.8398 9.4357 23.2196 7.8054L23.2132 7.83094Z" fill="#FFD600"/>
</svg>
