<svg width="24" height="24" viewBox="0 0 24 24" fill="none" xmlns="http://www.w3.org/2000/svg">
<path fill-rule="evenodd" clip-rule="evenodd" d="M12.1132 22.965C8.69672 22.9625 5.94465 22.1709 4.02175 20.7491C2.07578 19.3102 1.04346 17.2682 1.04346 14.9576C1.04346 12.7313 2.07352 11.126 3.23903 10.0408C4.15243 9.19043 5.16037 8.64579 5.86222 8.33251C5.7035 7.86219 5.50549 7.24648 5.32833 6.61053C5.09128 5.75955 4.85872 4.76112 4.85872 4.02947C4.85872 3.16348 5.05426 2.29377 5.58149 1.61797C6.13854 0.903978 6.97714 0.521484 7.98599 0.521484C8.77445 0.521484 9.44385 0.803886 9.96791 1.29106C10.4688 1.75673 10.8022 2.37514 11.0324 3.01981C11.437 4.1526 11.5944 5.57577 11.6386 6.99603H12.605C12.6492 5.57577 12.8066 4.1526 13.2112 3.01981C13.4414 2.37514 13.7747 1.75673 14.2757 1.29106C14.7998 0.803886 15.4691 0.521484 16.2576 0.521484C17.2665 0.521484 18.105 0.903978 18.6621 1.61797C19.1894 2.29377 19.3849 3.16348 19.3849 4.02947C19.3849 4.76112 19.1523 5.75955 18.9153 6.61053C18.7381 7.24648 18.5401 7.86219 18.3814 8.33251C19.0832 8.64579 20.0912 9.19043 21.0045 10.0408C22.1701 11.126 23.2001 12.7313 23.2001 14.9576C23.2001 17.2682 22.1679 19.3102 20.2218 20.7491C18.299 22.1709 15.5468 22.9625 12.1303 22.965H12.1132Z" fill="#633001"/>
<path d="M7.98626 1.3457C6.50864 1.3457 5.82845 2.42098 5.82845 3.90807C5.82845 5.09008 6.61876 7.45735 6.94303 8.37888C7.01596 8.58615 6.90137 8.81325 6.69236 8.89363C5.50809 9.34911 2.01318 11.0168 2.01318 14.8363C2.01318 18.8596 5.5648 21.8932 12.1143 21.898C12.1169 21.898 12.1195 21.8979 12.1221 21.8979C12.1247 21.8979 12.1273 21.898 12.1299 21.898C18.6793 21.8932 22.2309 18.8596 22.2309 14.8363C22.2309 11.0168 18.7361 9.34911 17.5518 8.89363C17.3428 8.81325 17.2282 8.58615 17.3011 8.37888C17.6254 7.45735 18.4157 5.09008 18.4157 3.90807C18.4157 2.42098 17.7355 1.3457 16.2579 1.3457C14.1309 1.3457 13.6006 4.28463 13.5628 7.43882C13.5604 7.64939 13.3858 7.82024 13.17 7.82024H11.0742C10.8583 7.82024 10.6838 7.64939 10.6813 7.43882C10.6435 4.28463 10.1133 1.3457 7.98626 1.3457Z" fill="#D1884F"/>
<path d="M12.1299 20.609C7.31768 20.609 2.0215 18.0964 2.01321 14.8438C2.0132 14.8487 2.01318 14.8538 2.01318 14.8589C2.01318 18.8855 5.57045 21.9207 12.1299 21.9207C18.6894 21.9207 22.2466 18.8855 22.2466 14.8589C22.2466 14.8538 22.2466 14.8487 22.2466 14.8438C22.2383 18.0964 16.9421 20.609 12.1299 20.609Z" fill="#FEDC90"/>
<path d="M9.45582 13.8439C9.45582 14.9421 8.92378 15.514 8.26747 15.514C7.61115 15.514 7.0791 14.9421 7.0791 13.8439C7.0791 12.7457 7.61115 12.1738 8.26747 12.1738C8.92378 12.1738 9.45582 12.7457 9.45582 13.8439Z" fill="#633001"/>
<path d="M17.1804 13.8439C17.1804 14.9421 16.6484 15.514 15.9921 15.514C15.3357 15.514 14.8037 14.9421 14.8037 13.8439C14.8037 12.7457 15.3357 12.1738 15.9921 12.1738C16.6484 12.1738 17.1804 12.7457 17.1804 13.8439Z" fill="#633001"/>
</svg>
