<svg width="24" height="24" viewBox="0 0 24 24" fill="none" xmlns="http://www.w3.org/2000/svg">
<path d="M15.8628 16.8856L16.6905 20.177H5.31068L6.13844 16.8856C4.2415 16.8856 2.68945 15.2022 2.68945 13.1452C2.68945 11.2756 3.96558 9.70428 5.65558 9.44271C4.48292 8.91895 3.62127 7.68459 3.62127 6.22603C3.62127 4.31845 5.03476 2.78516 6.79374 2.78516C8.55213 2.78516 9.96621 4.31845 9.96621 6.22603C9.96621 6.67506 9.89723 7.08609 9.75927 7.49776H12.173C12.035 7.12409 11.966 6.67443 11.966 6.22603C11.966 4.31845 13.3801 2.78516 15.1385 2.78516C16.8969 2.78516 18.311 4.31845 18.311 6.22603C18.311 7.68459 17.4832 8.95632 16.2767 9.44271C17.9316 9.70428 19.2422 11.2382 19.2422 13.1452C19.2616 13.63 19.1884 14.1139 19.0272 14.5677C18.8659 15.0216 18.6199 15.4358 18.304 15.7855C17.988 16.1352 17.6088 16.4129 17.1892 16.602C16.7696 16.7911 16.3184 16.8876 15.8628 16.8856Z" fill="#654D3F"/>
<path d="M8.20673 12.1378C8.68245 12.1378 9.06897 11.7192 9.06897 11.2024C9.06897 10.6862 8.68245 10.2676 8.20673 10.2676C7.73101 10.2676 7.34448 10.6862 7.34448 11.2024C7.34448 11.7192 7.73101 12.1378 8.20673 12.1378ZM13.3451 12.1378C13.8208 12.1378 14.2074 11.7192 14.2074 11.2024C14.2074 10.6862 13.8208 10.2676 13.3451 10.2676C12.8688 10.2676 12.4829 10.6862 12.4829 11.2024C12.4829 11.7192 12.8688 12.1378 13.3451 12.1378ZM10.7929 13.5216C11.2692 13.5216 11.6551 13.103 11.6551 12.5868C11.6551 12.07 11.2692 11.6514 10.7929 11.6514C10.3171 11.6514 9.93062 12.07 9.93062 12.5868C9.93062 13.103 10.3171 13.5216 10.7929 13.5216Z" fill="black"/>
<path d="M10.7935 12.584V13.743L10.3101 14.2294" fill="black"/>
<path d="M10.3106 14.7908C10.2464 14.7944 10.1822 14.7828 10.1226 14.757C10.063 14.7312 10.0094 14.6917 9.96575 14.6414C9.75881 14.4165 9.75881 14.0802 9.96575 13.8934L10.2756 13.5565V12.5843C10.2756 12.2847 10.4825 12.0605 10.7584 12.0605C11.0343 12.0605 11.2413 12.2847 11.2413 12.5843V13.7433C11.2447 13.8125 11.2341 13.8816 11.2103 13.946C11.1865 14.0105 11.15 14.0688 11.1033 14.117L10.655 14.604C10.6156 14.6622 10.5638 14.7095 10.5038 14.742C10.4438 14.7745 10.3774 14.7912 10.3101 14.7908H10.3106Z" fill="black"/>
<path d="M11.2065 14.7553C11.1422 14.7589 11.078 14.7473 11.0184 14.7215C10.9588 14.6956 10.9052 14.6562 10.8616 14.6059L10.4477 14.1562C10.2407 13.9326 10.2407 13.5957 10.4477 13.4089C10.6546 13.184 10.965 13.184 11.1375 13.4089L11.5514 13.8579C11.7583 14.0821 11.7583 14.4184 11.5514 14.6052C11.5078 14.6557 11.4542 14.6953 11.3946 14.7212C11.335 14.7472 11.2708 14.7588 11.2065 14.7553Z" fill="black"/>
<path d="M6.51723 20.3263C7.05004 20.3263 7.48235 19.8576 7.48235 19.2788C7.48235 18.7005 7.05004 18.2319 6.51723 18.2319C5.98383 18.2319 5.55151 18.7005 5.55151 19.2788C5.55151 19.8576 5.98383 20.3263 6.51723 20.3263ZM15.5173 20.3263C16.0507 20.3263 16.483 19.8576 16.483 19.2788C16.483 18.7005 16.0507 18.2319 15.5173 18.2319C14.9839 18.2319 14.5516 18.7005 14.5516 19.2788C14.5516 19.8576 14.9839 20.3263 15.5173 20.3263ZM12.4477 18.9425C12.4477 19.99 11.7936 20.8127 10.9997 20.8127C10.207 20.8127 9.55174 19.9526 9.55174 18.9425C9.55174 17.9323 10.207 16.4364 10.9997 16.4364C11.793 16.4364 12.4483 17.8949 12.4483 18.9425H12.4477ZM7.20702 17.6707C7.23443 17.6705 7.26153 17.6645 7.28676 17.6531C7.312 17.6417 7.33488 17.6251 7.35409 17.6043C7.37331 17.5835 7.38849 17.5588 7.39876 17.5317C7.40903 17.5047 7.4142 17.4757 7.41396 17.4465C7.41428 17.4173 7.40917 17.3883 7.39893 17.3611C7.3887 17.334 7.37353 17.3093 7.35431 17.2884C7.33508 17.2675 7.31218 17.2508 7.2869 17.2394C7.26163 17.228 7.23449 17.222 7.20702 17.2217C7.17956 17.222 7.15242 17.228 7.12715 17.2394C7.10187 17.2508 7.07897 17.2675 7.05974 17.2884C7.04052 17.3093 7.02535 17.334 7.01512 17.3611C7.00488 17.3883 6.99977 17.4173 7.00009 17.4465C7.00009 17.57 7.09226 17.6707 7.20702 17.6707ZM14.8275 17.6707C14.8549 17.6705 14.882 17.6645 14.9072 17.6531C14.9325 17.6417 14.9553 17.6251 14.9746 17.6043C14.9938 17.5835 15.009 17.5588 15.0192 17.5317C15.0295 17.5047 15.0347 17.4757 15.0344 17.4465C15.0347 17.4173 15.0296 17.3883 15.0194 17.3611C15.0092 17.334 14.994 17.3093 14.9748 17.2884C14.9555 17.2675 14.9326 17.2508 14.9074 17.2394C14.8821 17.228 14.855 17.222 14.8275 17.2217C14.8 17.222 14.7729 17.228 14.7476 17.2394C14.7223 17.2508 14.6994 17.2675 14.6802 17.2884C14.661 17.3093 14.6458 17.334 14.6356 17.3611C14.6253 17.3883 14.6202 17.4173 14.6206 17.4465C14.6206 17.57 14.7133 17.6707 14.8275 17.6707ZM8.13766 10.49C8.16512 10.4898 8.19226 10.4838 8.21753 10.4723C8.24281 10.4609 8.26571 10.4443 8.28494 10.4234C8.30416 10.4025 8.31933 10.3778 8.32956 10.3506C8.3398 10.3235 8.34491 10.2945 8.34459 10.2652C8.34483 10.236 8.33966 10.2071 8.32939 10.18C8.31912 10.1529 8.30394 10.1283 8.28472 10.1075C8.26551 10.0866 8.24263 10.0701 8.2174 10.0587C8.19216 10.0473 8.16507 10.0413 8.13766 10.041C8.11024 10.0413 8.08315 10.0473 8.05791 10.0587C8.03268 10.0701 8.0098 10.0866 7.99059 10.1075C7.97137 10.1283 7.95619 10.1529 7.94592 10.18C7.93565 10.2071 7.93048 10.236 7.93072 10.2652C7.93072 10.3893 8.02348 10.49 8.13766 10.49ZM13.9313 10.49C13.9588 10.4898 13.986 10.4838 14.0112 10.4723C14.0365 10.4609 14.0594 10.4443 14.0786 10.4234C14.0979 10.4025 14.113 10.3778 14.1233 10.3506C14.1335 10.3235 14.1386 10.2945 14.1383 10.2652C14.1385 10.236 14.1334 10.2071 14.1231 10.18C14.1128 10.1529 14.0976 10.1283 14.0784 10.1075C14.0592 10.0866 14.0363 10.0701 14.0111 10.0587C13.9859 10.0473 13.9588 10.0413 13.9313 10.041C13.9039 10.0412 13.8767 10.0471 13.8514 10.0585C13.8261 10.0698 13.8032 10.0864 13.7839 10.1072C13.7646 10.1281 13.7494 10.1527 13.7391 10.1799C13.7288 10.207 13.7236 10.236 13.7238 10.2652C13.7238 10.3893 13.8166 10.49 13.9313 10.49Z" fill="#F0F0EE"/>
<path d="M21.2758 21.0003H16.7243C16.3104 21.0003 16 20.6267 16 20.215C16 19.8034 16.3449 19.4297 16.7243 19.4297H21.2758C21.6896 19.4297 22 19.8034 22 20.215C22 20.6267 21.6896 21.0003 21.2758 21.0003Z" fill="black"/>
<path d="M16.7248 20.9999H5.34492C5.23217 21.0016 5.12057 20.9754 5.01886 20.9236C4.91715 20.8717 4.82807 20.7955 4.75859 20.7009C4.62063 20.5135 4.58614 20.2513 4.62063 19.9903L5.24145 17.5964C3.37959 17.11 2 15.3151 2 13.1453C1.99928 12.3617 2.18961 11.5913 2.55235 10.9096C2.9151 10.2278 3.43783 9.65806 4.06939 9.25605C3.3451 8.47072 2.93123 7.4232 2.93123 6.26357C2.93123 3.90759 4.68961 2 6.86188 2C9.03474 2 10.7931 3.90759 10.7931 6.26357C10.7931 6.41304 10.7931 6.56314 10.7586 6.74997H11.3105C11.3105 6.6005 11.276 6.45104 11.276 6.26357C11.2766 3.90759 13.035 2 15.2072 2C17.3795 2 19.1379 3.90759 19.1379 6.26357C19.1379 7.4232 18.7246 8.47009 18.0003 9.25605C19.2419 10.0414 20.0697 11.5373 20.0697 13.1453C20.0697 15.2777 18.6901 17.11 16.8282 17.559L17.4485 19.953C17.5174 20.1772 17.4485 20.4387 17.3105 20.6629C17.2457 20.7653 17.1586 20.8495 17.0566 20.9082C16.9546 20.9669 16.8407 20.9983 16.7248 20.9999ZM6.31063 19.3912H15.7591L15.1727 17.11C15.1038 16.8858 15.1727 16.6242 15.3107 16.3994C15.3802 16.3048 15.4693 16.2286 15.571 16.1767C15.6727 16.1249 15.7843 16.0988 15.897 16.1004C17.3795 16.1004 18.5866 14.7913 18.5866 13.1827C18.5866 11.7241 17.5864 10.4898 16.2764 10.2656C15.9315 10.2282 15.6901 9.92928 15.6556 9.55498C15.6211 9.18132 15.7936 8.84439 16.104 8.73166C16.5624 8.52922 16.9544 8.18687 17.2306 7.7477C17.5068 7.30852 17.6548 6.79215 17.656 6.26357C17.656 4.80501 16.5523 3.60802 15.2072 3.60802C13.8621 3.60802 12.759 4.80501 12.759 6.26357C12.759 6.6005 12.828 6.9368 12.9315 7.23637C13.035 7.49793 13.0005 7.7595 12.8625 7.98369C12.7246 8.20853 12.4831 8.32062 12.2417 8.32062H9.82741C9.58657 8.32062 9.34514 8.17116 9.20719 7.98433C9.13702 7.87614 9.09388 7.75071 9.08181 7.61985C9.06974 7.489 9.08915 7.35702 9.13821 7.23637C9.24841 6.92526 9.30677 6.59606 9.31065 6.26357C9.31065 4.80501 8.20698 3.60802 6.86247 3.60802C5.48288 3.60802 4.41369 4.76765 4.41369 6.26357C4.41369 7.34846 5.03451 8.35799 5.96574 8.73229C6.27614 8.88175 6.44859 9.21869 6.4141 9.55562C6.37961 9.92928 6.1037 10.1908 5.79329 10.2656C4.48267 10.453 3.48306 11.7241 3.48306 13.1827C3.48306 14.7913 4.69021 16.1004 6.17268 16.1004C6.4141 16.1004 6.62104 16.2125 6.759 16.3994C6.89696 16.5868 6.93145 16.8484 6.89696 17.11L6.31063 19.3919V19.3912Z" fill="black"/>
</svg>
