<svg width="32" height="32" viewBox="0 0 32 32" fill="none" xmlns="http://www.w3.org/2000/svg">
<g clip-path="url(#clip0_354_3044)">
<path d="M16 32C24.8366 32 32 24.8366 32 16C32 7.16344 24.8366 0 16 0C7.16344 0 0 7.16344 0 16C0 24.8366 7.16344 32 16 32Z" fill="#231F2D"/>
<path d="M10.3001 8.63529L15.9361 5.35461L21.5721 8.63529L19.5001 9.84724L15.9361 7.77854L12.3722 9.84724L10.3001 8.63529ZM23.0433 20.1907L19.4794 22.2594V24.6834L25.1154 21.4027V14.8414L23.0433 16.0534V20.1907ZM20.9713 10.704L23.0433 11.9159V14.3399L25.1154 13.1279V10.704L23.0433 9.492L20.9713 10.704ZM13.864 23.1371V25.561L15.9361 26.773L18.0082 25.561V23.1371L15.9361 24.349L13.864 23.1371ZM8.82891 11.9159L10.901 10.704L8.82891 9.492L6.75684 10.704V13.1279L8.82891 14.3399V11.9159ZM8.82891 16.0534L6.75684 14.8414V21.4027L12.3929 24.6834V22.2594L8.82891 20.1907V16.0534Z" fill="#BCB2FE"/>
<path d="M15.9363 9.49194L10.3003 12.7726V19.3339L15.9363 22.6146L21.5723 19.3339V12.7726L15.9363 9.49194Z" fill="#BCB2FE"/>
<path d="M14.251 14.2062C14.251 15.2093 14.9899 15.9776 15.9824 15.9998V14.3965C17.9391 14.4183 19.4135 15.8741 19.4135 17.7937C19.4135 19.7278 17.9167 21.1911 15.938 21.1911C14.2129 21.1911 12.8684 20.084 12.5513 18.5444H14.3017C14.5808 19.1679 15.1896 19.5878 15.938 19.5878C16.9527 19.5878 17.7138 18.8116 17.7138 17.7937C17.7138 16.7906 16.9748 16.0223 15.9824 16.0001V17.6034C14.0257 17.5816 12.5513 16.1258 12.5513 14.2062C12.5513 12.2721 14.048 10.8088 16.0268 10.8088C17.7518 10.8088 19.0964 11.9159 19.4135 13.4555H17.6631C17.384 12.832 16.7752 12.4121 16.0268 12.4121C15.012 12.4121 14.251 13.1883 14.251 14.2062Z" fill="#231F2D"/>
</g>
<defs>
<clipPath id="clip0_354_3044">
<rect width="32" height="32" fill="white"/>
</clipPath>
</defs>
</svg>
