<svg width="66" height="32" viewBox="0 0 66 32" fill="none" xmlns="http://www.w3.org/2000/svg">
<path d="M16 32C24.8366 32 32 24.8366 32 16C32 7.16344 24.8366 0 16 0C7.16344 0 0 7.16344 0 16C0 24.8366 7.16344 32 16 32Z" fill="#231F2D"/>
<path d="M10.2984 8.63614L15.9344 5.35547L21.5704 8.63614L19.4983 9.84809L15.9344 7.7794L12.3705 9.84809L10.2984 8.63614ZM23.0416 20.1916L19.4777 22.2603V24.6842L25.1137 21.4035V14.8422L23.0416 16.0542V20.1916ZM20.9696 10.7048L23.0416 11.9168V14.3407L25.1137 13.1288V10.7048L23.0416 9.49286L20.9696 10.7048ZM13.8623 23.1379V25.5618L15.9344 26.7738L18.0065 25.5618V23.1379L15.9344 24.3499L13.8623 23.1379ZM8.8272 11.9168L10.8993 10.7048L8.8272 9.49286L6.75513 10.7048V13.1288L8.8272 14.3407V11.9168ZM8.8272 16.0542L6.75513 14.8422V21.4035L12.3911 24.6842V22.2603L8.8272 20.1916V16.0542Z" fill="#BCB2FE"/>
<path d="M15.938 9.49219L10.302 12.7729V19.3342L15.938 22.6149L21.574 19.3342V12.7729L15.938 9.49219Z" fill="#BCB2FE"/>
<path d="M14.2517 14.206C14.2517 15.209 14.9907 15.9773 15.9831 15.9996V14.3963C17.9398 14.418 19.4142 15.8738 19.4142 17.7934C19.4142 19.7275 17.9175 21.1908 15.9387 21.1908C14.2137 21.1908 12.8691 20.0838 12.552 18.5442H14.3024C14.5815 19.1677 15.1903 19.5875 15.9387 19.5875C16.9535 19.5875 17.7145 18.8114 17.7145 17.7934C17.7145 16.7904 16.9756 16.0221 15.9831 15.9998V17.6031C14.0264 17.5814 12.552 16.1256 12.552 14.206C12.552 12.2719 14.0487 10.8086 16.0275 10.8086C17.7526 10.8086 19.0971 11.9156 19.4142 13.4552H17.6638C17.3847 12.8317 16.7759 12.4119 16.0275 12.4119C15.0128 12.4119 14.2517 13.188 14.2517 14.206Z" fill="#231F2D"/>
<circle cx="50" cy="16" r="16" fill="#F3BA2F"/>
<path d="M52.1336 23.2095V25.6543L49.9692 26.908L47.8684 25.6543V23.2095L49.9692 24.4632L52.1336 23.2095ZM40.5454 14.7447L42.6462 15.9984V20.1995L46.2758 22.3308V24.7756L40.5454 21.4532V14.7447ZM59.3919 14.7447V21.4532L53.5978 24.7756V22.3308L57.2274 20.1995V15.9984L59.3919 14.7447ZM53.5978 11.4223L55.7622 12.676V15.1208L52.1326 17.2522V21.5159L50.0318 22.7697L47.931 21.5159V17.2522L44.174 15.1208V12.676L46.3385 11.4223L49.9681 13.5536L53.5978 11.4223ZM44.1751 16.8771L46.2758 18.1308V20.5756L44.1751 19.3219V16.8771ZM55.7632 16.8771V19.3219L53.6625 20.5756V18.1308L55.7632 16.8771ZM42.6462 9.2909L44.8106 10.5446L42.6462 11.7984V14.2432L40.5454 12.9894V10.5446L42.6462 9.2909ZM57.2901 9.2909L59.4545 10.5446V12.9894L57.2901 14.2432V11.7984L55.1893 10.5446L57.2901 9.2909ZM49.9681 9.2909L52.1326 10.5446L49.9681 11.7984L47.8673 10.5446L49.9681 9.2909ZM49.9681 5.08984L55.7622 8.41227L53.6614 9.66601L50.0318 7.53464L46.3385 9.66601L44.2377 8.41227L49.9681 5.08984Z" fill="white"/>
</svg>
