<svg width="32" height="32" viewBox="0 0 32 32" fill="none" xmlns="http://www.w3.org/2000/svg">
<path d="M16.1241 27.0267C22.2823 27.0267 27.2745 22.0345 27.2745 15.8763C27.2745 9.71805 22.2823 4.72583 16.1241 4.72583C9.96585 4.72583 4.97363 9.71805 4.97363 15.8763C4.97363 22.0345 9.96585 27.0267 16.1241 27.0267Z" fill="#F0B90B"/>
<path d="M30.2477 15.8762C30.2477 17.731 29.8825 19.5676 29.1726 21.2812C28.4629 22.9947 27.4225 24.5517 26.111 25.8633C24.7995 27.1748 23.2425 28.2152 21.5289 28.925C19.8153 29.6347 17.9786 30.0001 16.1239 30.0001C14.2691 30.0001 12.4325 29.6347 10.7189 28.925C9.00532 28.2152 7.44831 27.1748 6.13679 25.8633C4.82526 24.5517 3.78491 22.9947 3.07511 21.2812C2.36533 19.5676 2 17.731 2 15.8762H5.38514C5.38514 17.2865 5.66291 18.6828 6.20258 19.9857C6.74225 21.2886 7.53326 22.4725 8.53045 23.4696C9.52764 24.4668 10.7115 25.2578 12.0143 25.7975C13.3173 26.3372 14.7136 26.615 16.1239 26.615C17.5341 26.615 18.9305 26.3372 20.2335 25.7975C21.5364 25.2578 22.7201 24.4668 23.7174 23.4696C24.7145 22.4725 25.5055 21.2886 26.0452 19.9857C26.5849 18.6828 26.8626 17.2865 26.8626 15.8762H30.2477Z" fill="#C73238"/>
<path d="M27.2746 15.8762C27.2746 17.3405 26.9861 18.7905 26.4257 20.1433C25.8654 21.4961 25.0441 22.7253 24.0087 23.7607C22.9732 24.7962 21.7441 25.6175 20.3912 26.1778C19.0383 26.7382 17.5884 27.0267 16.1241 27.0267C14.6598 27.0267 13.2098 26.7382 11.857 26.1778C10.5041 25.6175 9.27493 24.7962 8.23952 23.7607C7.20411 22.7253 6.38277 21.4961 5.82241 20.1433C5.26205 18.7905 4.97363 17.3405 4.97363 15.8762H16.1241H27.2746Z" fill="#070B09"/>
<path d="M11.1407 16.0647L11.1487 19.0132L13.654 20.4873V22.2136L9.68254 19.8843V15.2026L11.1407 16.0647ZM11.1407 13.1163V14.8345L9.68164 13.9713V12.2532L11.1407 11.3901L12.6068 12.2532L11.1407 13.1163ZM14.7002 12.2532L16.1592 11.3901L17.6255 12.2532L16.1592 13.1163L14.7002 12.2532Z" fill="white"/>
<path d="M12.1948 18.4021V16.6758L13.6538 17.539V19.2571L12.1948 18.4021ZM14.7001 21.1057L16.1591 21.9687L17.6253 21.1057V22.8238L16.1591 23.6868L14.7001 22.8238V21.1057ZM19.7177 12.2532L21.1768 11.3901L22.643 12.2532V13.9713L21.1768 14.8345V13.1163L19.7177 12.2532ZM21.1768 19.0132L21.1848 16.0647L22.6438 15.2016V19.8833L18.6725 22.2127V20.4865L21.1768 19.0132Z" fill="white"/>
<path d="M20.1304 18.402L18.6714 19.2572V17.539L20.1304 16.6759V18.402Z" fill="white"/>
<path d="M20.1306 13.7275L20.1386 15.4537L17.6262 16.9279V19.8834L16.1672 20.7385L14.7081 19.8834V16.9279L12.1957 15.4537V13.7275L13.661 12.8644L16.1582 14.3458L18.6707 12.8644L20.1368 13.7275H20.1306ZM12.1948 10.7799L16.1591 8.44263L20.1306 10.7799L18.6716 11.643L16.1591 10.1617L13.6538 11.643L12.1948 10.7799Z" fill="white"/>
</svg>
