<svg width="24" height="24" viewBox="0 0 24 24" fill="none" xmlns="http://www.w3.org/2000/svg">
<path d="M8.40678 4.61377C8.18804 4.57985 8.1788 4.57584 8.28176 4.56004C8.47904 4.52967 8.94485 4.57105 9.26587 4.64735C10.0153 4.8255 10.6972 5.28184 11.4251 6.09226L11.6185 6.30758L11.8951 6.2631C13.0605 6.07582 14.2461 6.22465 15.2378 6.68275C15.5106 6.80878 15.9407 7.05967 15.9944 7.12415C16.0116 7.14466 16.043 7.27694 16.0643 7.41806C16.1379 7.9063 16.1011 8.28056 15.9517 8.56006C15.8705 8.71219 15.8659 8.76038 15.9206 8.89056C15.9642 8.99446 16.0858 9.07133 16.2062 9.07118C16.4526 9.07084 16.7179 8.67246 16.8407 8.11818L16.8896 7.89802L16.9863 8.00754C17.5167 8.60855 17.9334 9.42818 18.0049 10.0116L18.0236 10.1637L17.9344 10.0254C17.781 9.78747 17.6268 9.62546 17.4294 9.49483C17.0734 9.25932 16.6971 9.1792 15.7005 9.12667C14.8004 9.07923 14.2909 9.00236 13.7858 8.83762C12.9263 8.55741 12.4931 8.18423 11.4721 6.84476C11.0187 6.24985 10.7384 5.92066 10.4596 5.65558C9.82611 5.05326 9.20361 4.73736 8.40678 4.61377Z" fill="#FF007A"/>
<path d="M16.1974 5.94212C16.2201 5.54348 16.2742 5.28049 16.3829 5.04037C16.4259 4.94531 16.4662 4.86751 16.4724 4.86751C16.4786 4.86751 16.46 4.93767 16.4309 5.02341C16.3518 5.25649 16.3389 5.57523 16.3933 5.94612C16.4624 6.41669 16.5017 6.48457 16.999 6.99291C17.2323 7.23134 17.5037 7.53203 17.602 7.66113L17.7809 7.89589L17.602 7.72811C17.3833 7.52297 16.8803 7.12287 16.7691 7.06566C16.6947 7.02732 16.6836 7.02796 16.6376 7.07371C16.5953 7.11587 16.5864 7.17918 16.5805 7.4786C16.5713 7.94524 16.5077 8.24477 16.3542 8.54426C16.2712 8.70623 16.2581 8.67168 16.3332 8.48885C16.3893 8.35234 16.395 8.29232 16.3946 7.84055C16.3938 6.93293 16.286 6.71472 15.6541 6.34091C15.494 6.24622 15.2302 6.10963 15.0679 6.0374C14.9056 5.96518 14.7767 5.90224 14.7814 5.89756C14.7993 5.87974 15.4156 6.05961 15.6636 6.15501C16.0326 6.29695 16.0935 6.31533 16.1383 6.29822C16.1683 6.28676 16.1828 6.19926 16.1974 5.94212Z" fill="#FF007A"/>
<path d="M8.83174 7.49485C8.38765 6.88347 8.1129 5.94604 8.17236 5.24529L8.19078 5.02843L8.29184 5.04689C8.4817 5.08152 8.80898 5.20335 8.96226 5.29643C9.38284 5.55186 9.56492 5.88816 9.75018 6.75175C9.80443 7.00466 9.87561 7.2909 9.90837 7.38784C9.96113 7.54382 10.1604 7.90817 10.3224 8.1448C10.4391 8.31519 10.3616 8.39595 10.1036 8.37266C9.70967 8.3371 9.17602 7.96882 8.83174 7.49485Z" fill="#FF007A"/>
<path d="M15.6589 12.0452C13.5835 11.2096 12.8525 10.4843 12.8525 9.26045C12.8525 9.08035 12.8588 8.93298 12.8663 8.93298C12.8738 8.93298 12.9542 8.99244 13.0447 9.06508C13.4656 9.40261 13.9368 9.5468 15.2415 9.73711C16.0092 9.84914 16.4412 9.9396 16.8398 10.0718C18.1065 10.4919 18.8902 11.3444 19.0771 12.5056C19.1314 12.843 19.0995 13.4758 19.0115 13.8093C18.942 14.0727 18.7299 14.5474 18.6736 14.5656C18.658 14.5707 18.6427 14.5109 18.6387 14.4295C18.6174 13.9935 18.397 13.569 18.027 13.251C17.6063 12.8895 17.041 12.6017 15.6589 12.0452Z" fill="#FF007A"/>
<path d="M14.202 12.3923C14.1759 12.2376 14.1308 12.04 14.1017 11.9532L14.0488 11.7954L14.1471 11.9058C14.2832 12.0586 14.3908 12.2541 14.482 12.5145C14.5515 12.7132 14.5594 12.7723 14.5588 13.0953C14.5583 13.4123 14.5496 13.4788 14.4854 13.6577C14.3841 13.9397 14.2583 14.1397 14.0474 14.3544C13.6683 14.7403 13.1808 14.9539 12.4775 15.0425C12.3552 15.0579 11.9989 15.0838 11.6856 15.1001C10.8961 15.1412 10.3765 15.226 9.90958 15.39C9.84245 15.4135 9.78251 15.4279 9.77644 15.4218C9.75753 15.403 10.0754 15.2135 10.338 15.087C10.7082 14.9086 11.0768 14.8113 11.9026 14.6738C12.3105 14.6059 12.7317 14.5234 12.8387 14.4907C13.8489 14.1809 14.3681 13.3817 14.202 12.3923Z" fill="#FF007A"/>
<path d="M15.1534 14.0819C14.8777 13.4892 14.8144 12.9169 14.9654 12.3831C14.9816 12.3261 15.0076 12.2794 15.0232 12.2794C15.0388 12.2794 15.1039 12.3146 15.1678 12.3576C15.2949 12.4431 15.5497 12.5872 16.2286 12.9573C17.0759 13.4193 17.5589 13.7769 17.8874 14.1856C18.1751 14.5435 18.3531 14.9511 18.4388 15.4481C18.4873 15.7297 18.4589 16.4071 18.3867 16.6906C18.1589 17.5845 17.6294 18.2867 16.8743 18.6964C16.7637 18.7564 16.6644 18.8057 16.6536 18.8059C16.6429 18.8061 16.6832 18.7036 16.7432 18.5781C16.9972 18.0471 17.0261 17.5306 16.8341 16.9557C16.7165 16.6037 16.4768 16.1742 15.9927 15.4482C15.4299 14.6042 15.2919 14.3796 15.1534 14.0819Z" fill="#FF007A"/>
<path d="M7.35795 17.2802C8.12813 16.6299 9.08637 16.168 9.95928 16.0262C10.3355 15.965 10.9621 15.9893 11.3105 16.0784C11.8689 16.2213 12.3683 16.5414 12.6281 16.9227C12.882 17.2954 12.9909 17.6202 13.1043 18.3428C13.149 18.6279 13.1977 18.9141 13.2124 18.9789C13.2976 19.3534 13.4633 19.6527 13.6686 19.8031C13.9948 20.0418 14.5565 20.0567 15.109 19.8412C15.2028 19.8046 15.2842 19.7793 15.2899 19.785C15.3099 19.8049 15.0317 19.9911 14.8354 20.0892C14.5714 20.2211 14.3613 20.2721 14.0823 20.2721C13.5763 20.2721 13.1561 20.0147 12.8056 19.4898C12.7366 19.3865 12.5815 19.077 12.461 18.8022C12.0909 17.958 11.9081 17.7008 11.4784 17.4194C11.1043 17.1745 10.622 17.1306 10.2592 17.3085C9.78255 17.5422 9.64956 18.1513 9.99095 18.5373C10.1266 18.6907 10.3796 18.823 10.5865 18.8488C10.9736 18.8969 11.3062 18.6025 11.3062 18.2117C11.3062 17.958 11.2087 17.8132 10.9632 17.7024C10.6278 17.5511 10.2674 17.7279 10.2691 18.0429C10.2699 18.1773 10.3284 18.2616 10.463 18.3225C10.5494 18.3616 10.5514 18.3647 10.4809 18.3501C10.1733 18.2863 10.1012 17.9154 10.3486 17.6691C10.6456 17.3735 11.2597 17.504 11.4706 17.9075C11.5592 18.0769 11.5695 18.4145 11.4923 18.6183C11.3194 19.0745 10.8153 19.3144 10.3039 19.1838C9.95579 19.0949 9.81404 18.9987 9.39428 18.5663C8.66489 17.815 8.38172 17.6694 7.33017 17.5053L7.12866 17.4738L7.35795 17.2802Z" fill="#FF007A"/>
<path fill-rule="evenodd" clip-rule="evenodd" d="M1.85776 0.449414C4.29362 3.40582 8.04896 8.00877 8.23542 8.26648C8.38934 8.47926 8.33142 8.67055 8.06772 8.82047C7.92106 8.90385 7.61955 8.98832 7.46858 8.98832C7.29785 8.98832 7.10551 8.9061 6.96544 8.77322C6.86641 8.67931 6.46684 8.08265 5.54439 6.65133C4.83858 5.55617 4.2479 4.64765 4.2318 4.63245C4.19455 4.59725 4.19519 4.59845 5.47243 6.88377C6.27442 8.31879 6.54516 8.82612 6.54516 8.89397C6.54516 9.03198 6.50753 9.1045 6.33729 9.2944C6.05348 9.61101 5.92663 9.96674 5.83505 10.703C5.73235 11.5283 5.44367 12.1113 4.64362 13.1091C4.1753 13.6932 4.09866 13.8002 3.9805 14.0357C3.83163 14.3321 3.7907 14.4981 3.77412 14.8725C3.7566 15.2683 3.79074 15.524 3.91168 15.9024C4.01753 16.2337 4.12802 16.4524 4.41051 16.89C4.65429 17.2676 4.7947 17.5482 4.7947 17.6579C4.7947 17.7453 4.81136 17.7454 5.18914 17.6601C6.09317 17.4559 6.82729 17.0969 7.24015 16.6569C7.49565 16.3845 7.55563 16.2341 7.55758 15.8609C7.55885 15.6168 7.55028 15.5657 7.48431 15.4252C7.37689 15.1966 7.18133 15.0066 6.75031 14.712C6.18558 14.3259 5.94438 14.0151 5.87773 13.5877C5.82307 13.237 5.88649 12.9895 6.1989 12.3347C6.52229 11.657 6.60241 11.3681 6.65663 10.685C6.69163 10.2436 6.74012 10.0695 6.86694 9.92982C6.99918 9.7841 7.11824 9.73479 7.44556 9.69005C7.97917 9.61715 8.31895 9.4791 8.59827 9.22173C8.84055 8.99847 8.94194 8.78333 8.95752 8.45946L8.96931 8.21399L8.83392 8.05614C8.34359 7.48441 1.52939 0 1.49921 0C1.49277 0 1.65412 0.202251 1.85776 0.449414ZM5.06993 15.3203C5.1808 15.124 5.1219 14.8716 4.93645 14.7483C4.76123 14.6318 4.48903 14.6867 4.48903 14.8385C4.48903 14.8848 4.51467 14.9185 4.57241 14.9483C4.66961 14.9983 4.67668 15.0545 4.60019 15.1695C4.52272 15.2859 4.52898 15.3883 4.61782 15.4579C4.76104 15.57 4.96375 15.5083 5.06993 15.3203Z" fill="#FF007A"/>
<path fill-rule="evenodd" clip-rule="evenodd" d="M9.30609 9.8188C9.0556 9.89575 8.81208 10.1612 8.73668 10.4397C8.6907 10.6095 8.7168 10.9074 8.78569 10.9994C8.89696 11.148 9.00457 11.1872 9.29598 11.1851C9.86644 11.1811 10.3624 10.9365 10.42 10.6306C10.4673 10.3799 10.2495 10.0324 9.94948 9.87983C9.79466 9.80113 9.4654 9.7699 9.30609 9.8188ZM9.973 10.3403C10.061 10.2153 10.0225 10.0802 9.87288 9.98883C9.58795 9.81483 9.15703 9.9588 9.15703 10.228C9.15703 10.362 9.38172 10.5082 9.58772 10.5082C9.7248 10.5082 9.91242 10.4264 9.973 10.3403Z" fill="#FF007A"/>
</svg>
