<svg width="24" height="24" viewBox="0 0 24 24" fill="none" xmlns="http://www.w3.org/2000/svg">
<circle cx="12" cy="12" r="12" fill="#131521"/>
<path d="M20.3206 9.5506L13.9934 20.528C13.7956 20.8582 13.532 21.1388 13.2025 21.3204C12.8729 21.5185 12.4939 21.6175 12.115 21.6175C11.736 21.6175 11.357 21.5185 11.0275 21.3204C10.6979 21.1223 10.4178 20.8582 10.2366 20.528L9.13261 18.6132V18.5967C9.13261 18.5967 9.13261 18.5802 9.14908 18.5802H9.16556C9.16556 18.5802 9.18204 18.5802 9.18204 18.5967C9.37976 18.7948 9.62692 18.9433 9.89055 19.0259C10.1542 19.1084 10.4343 19.1414 10.7144 19.1084C10.9945 19.0754 11.2582 18.9763 11.4888 18.8113C11.7195 18.6627 11.9172 18.4481 12.0491 18.217L17.3382 9.02237C17.47 8.77476 17.5524 8.51064 17.5854 8.23001C17.6018 7.94938 17.5524 7.66876 17.4535 7.40464C17.3382 7.14052 17.1734 6.90941 16.9757 6.72783C16.7615 6.54625 16.5144 6.41419 16.2507 6.33166H16.2342V6.31515V6.29864H16.2507H18.4916C18.8706 6.29864 19.2496 6.39768 19.5791 6.59577C19.9086 6.79386 20.1887 7.05798 20.37 7.38813C20.5677 7.71828 20.6666 8.09795 20.6666 8.47762C20.6007 8.84078 20.5018 9.20395 20.3206 9.5506ZM12.8235 6.26562H10.632H10.6155V6.28213V6.29864C10.6155 6.29864 10.6155 6.29864 10.632 6.29864C10.7803 6.34816 10.9121 6.44721 11.0275 6.56276C11.1428 6.67831 11.2252 6.81037 11.2746 6.95894C11.3241 7.10751 11.3405 7.27258 11.3405 7.42114C11.3241 7.58622 11.2746 7.73479 11.1922 7.86685L7.99569 13.3968C7.9133 13.5454 7.79796 13.661 7.66615 13.7435C7.53433 13.8425 7.38603 13.8921 7.22126 13.9251C7.05649 13.9581 6.89172 13.9416 6.74343 13.8921C6.59513 13.8425 6.44684 13.76 6.31502 13.661C6.31502 13.661 6.29855 13.661 6.29855 13.6444H6.28207C6.28207 13.6444 6.28207 13.661 6.26559 13.661V13.6775L7.38603 15.6253C7.51785 15.8399 7.6991 16.0215 7.9133 16.1536C8.1275 16.2856 8.37466 16.3517 8.63829 16.3517C8.88545 16.3517 9.13261 16.2856 9.36329 16.1536C9.59397 16.0215 9.75874 15.8399 9.89055 15.6253L14.0757 8.4281C14.2076 8.2135 14.2735 7.96589 14.2735 7.70177C14.2735 7.45416 14.2076 7.20655 14.0757 6.97544C13.9439 6.76085 13.7627 6.57927 13.5485 6.44721C13.3343 6.33166 13.0871 6.26562 12.8235 6.26562ZM5.22753 6.26562C4.84856 6.26562 4.48606 6.38118 4.173 6.57927C3.85993 6.79386 3.61278 7.091 3.48096 7.43765C3.33267 7.78431 3.29971 8.16398 3.36562 8.52714C3.43153 8.89031 3.61278 9.23696 3.87641 9.50108C4.14004 9.7652 4.48606 9.94678 4.84856 10.0128C5.21106 10.0788 5.59003 10.0458 5.93605 9.89726C6.28207 9.74869 6.57866 9.51759 6.79286 9.20395C7.00706 8.89031 7.10592 8.52714 7.10592 8.14747C7.10592 7.89986 7.05649 7.65225 6.95763 7.42114C6.85877 7.19004 6.72695 6.97544 6.5457 6.81037C6.36445 6.62879 6.16673 6.49673 5.93605 6.39768C5.72185 6.31515 5.47469 6.26562 5.22753 6.26562Z" fill="url(#paint0_linear_4339_21314)"/>
<defs>
<linearGradient id="paint0_linear_4339_21314" x1="20.843" y1="17.7281" x2="1.06855" y2="4.32418" gradientUnits="userSpaceOnUse">
<stop stop-color="#454D9C"/>
<stop offset="0.5" stop-color="#47B8EA"/>
<stop offset="1" stop-color="#82C28A"/>
</linearGradient>
</defs>
</svg>
