<svg width="24" height="24" viewBox="0 0 24 24" fill="none" xmlns="http://www.w3.org/2000/svg">
    <rect x="3.31738" y="4.69531" width="17.3653" height="14.162" fill="#B3A38F"/>
    <path fill-rule="evenodd" clip-rule="evenodd" d="M7.86971 3.17773H3.31765V9.07856H1.80029V17.3397H2.64327V18.1827H3.31765V18.8571H4.16062V19.7H4.835V20.3744H7.19533V21.0488H16.6367V20.3744H19.1656V19.7H19.84V18.8571H20.6829V18.1827H21.3573V17.3397H22.2003V9.07856H20.6829V3.17773H16.1309V4.69509H7.86971V3.17773ZM7.86971 4.69509V6.21245H16.1309V4.69509H19.1656V9.07856H20.6829V16.6653H19.84V18.1827H19.1656V18.8571H17.6482V19.5315H6.35236V18.8571H4.835V18.1827H4.16062V16.6653H3.31765V9.07856H4.835V4.69509H7.86971Z" fill="#302A1F"/>
    <path d="M7.02663 5.36914H5.50928V6.8865H6.52085V6.54931H7.02663V5.36914Z" fill="#6C6056"/>
    <path d="M16.9739 5.36914H18.4912V6.8865H17.4796V6.54931H16.9739V5.36914Z" fill="#6C6056"/>
    <path fill-rule="evenodd" clip-rule="evenodd" d="M19.8397 17.5078H19.1653V18.1816H17.648V18.856H19.1654V18.1822H19.8397V17.5078ZM6.18359 18.8574H17.6481V19.5318H6.18359V18.8574Z" fill="#6C6056"/>
    <path d="M9.55544 11.7754H8.03809V13.2927H9.55544V11.7754Z" fill="#302A1F"/>
    <path d="M15.9621 11.7754H14.4447V13.2927H15.9621V11.7754Z" fill="#302A1F"/>
    <path d="M12.9273 13.2927H13.9389V14.3043H12.9273V13.2927Z" fill="#302A1F"/>
    <path d="M12.9273 18.182H13.9389V17.6762H14.9505V14.3043H13.9389V16.3275H12.9273V15.8217H11.0728V16.3275H10.0612V14.3043H11.0728V13.2927H10.0612V14.3043H9.04966V17.6762H10.0612V18.182H11.0728V18.6878H11.41V19.1936H12.4216V18.6878H12.9273V18.182Z" fill="#302A1F"/>
</svg>
