<svg xmlns="http://www.w3.org/2000/svg" fill="none" viewBox="0 0 33 32">
  <path fill="url(#grqwr)" d="M24.346 0H7.688C3.442 0 0 3.438 0 7.68v16.64C0 28.561 3.442 32 7.688 32h16.658c4.246 0 7.688-3.439 7.688-7.68V7.68c0-4.242-3.442-7.68-7.688-7.68Z"/>
  <path fill="#0C0B0B" fill-rule="evenodd" d="M16.017 26.24c5.66 0 10.25-4.585 10.25-10.24 0-5.656-4.59-10.24-10.25-10.24-5.662 0-10.251 4.584-10.251 10.24 0 5.655 4.59 10.24 10.25 10.24Zm-1.81-15.128c0-.295.24-.533.534-.533h2.551c.294 0 .533.238.533.533v3.119h-3.617v3.538h3.617v3.119a.533.533 0 0 1-.533.533h-2.551a.533.533 0 0 1-.534-.534v-3.004h-3.084a.533.533 0 0 1-.533-.534v-2.585c0-.294.239-.533.533-.533h3.085v-3.119Zm3.618 3.119h3.086c.294 0 .533.239.533.533v2.585a.533.533 0 0 1-.533.534h-3.085V14.23Z" clip-rule="evenodd"/>
  <defs>
    <linearGradient id="grqwr" x1="2.667" x2="30.638" y1="29.333" y2="1.97" gradientUnits="userSpaceOnUse">
      <stop stop-color="#BDFDE2"/>
      <stop offset="1" stop-color="#9BDAF6"/>
    </linearGradient>
  </defs>
</svg>