<svg xmlns="http://www.w3.org/2000/svg" fill="none" viewBox="0 0 100 100" height="64" width="64">
  <path fill="#0052FF" d="M10 50c0 22.091 17.909 40 40 40s40-17.909 40-40-17.909-40-40-40-40 17.909-40 40Z"/>
  <path fill="#fff" fill-rule="evenodd" d="M21.875 50c0 15.533 12.592 28.125 28.125 28.125S78.125 65.533 78.125 50 65.533 21.875 50 21.875 21.875 34.467 21.875 50Zm20.938-9.063c-1.036 0-1.876.84-1.876 1.876v14.374c0 1.036.84 1.876 1.876 1.876h14.374c1.036 0 1.876-.84 1.876-1.876V42.813c0-1.036-.84-1.876-1.876-1.876H42.813Z" clip-rule="evenodd"/>
</svg>
