<svg width="64" height="64" viewBox="0 0 64 64" fill="none" xmlns="http://www.w3.org/2000/svg">
<path d="M48.64 0H15.36C6.87691 0 0 6.87691 0 15.36V48.64C0 57.1231 6.87691 64 15.36 64H48.64C57.1231 64 64 57.1231 64 48.64V15.36C64 6.87691 57.1231 0 48.64 0Z" fill="#FDFF5D"/>
<path d="M48.4571 48.2069L43.7913 35.9872C43.5885 35.5251 43.1827 35.2171 42.6756 35.2171H40.7991C40.2919 35.2171 39.8355 34.909 39.6834 34.4469L32.0761 14.6284H25.1281L17.7236 33.5227C17.4193 34.3442 17.9772 35.2171 18.8393 35.2171C19.7015 35.2171 20.2594 36.0899 19.9551 36.9114L15.5428 48.2582H48.4571V48.2069ZM28.4246 20.6356L33.6989 34.3956C33.9018 34.8576 34.3075 35.1657 34.8147 35.1657H36.6912C37.1983 35.1657 37.6548 35.4738 37.8069 35.9359L40.5455 43.0726H23.4544L25.8381 36.8087C26.1424 35.9872 25.5338 35.1657 24.7223 35.1657H24.6209C23.7587 35.1657 23.2009 34.2929 23.5052 33.5227L28.4246 20.6356Z" fill="black"/>
</svg>
