<svg width="64" height="64" fill="none" xmlns="http://www.w3.org/2000/svg">
	<path d="M58.5 32c0 14.636-11.864 26.5-26.5 26.5S5.5 46.636 5.5 32 17.364 5.5 32 5.5 58.5 17.364 58.5 32z"
	      fill="#fff" stroke="#F2F5FA"/>
	<path d="M21.37 25.298c5.87-5.73 15.39-5.73 21.26 0l.707.69a.722.722 0 010 1.038l-2.417 2.36a.382.382 0 01-.532 0l-.972-.95c-4.096-3.998-10.736-3.998-14.832 0l-1.041 1.017a.382.382 0 01-.532 0l-2.417-2.36a.722.722 0 010-1.038l.776-.757zm26.259 4.88l2.15 2.1a.721.721 0 010 1.038l-9.699 9.47a.765.765 0 01-1.063 0l-6.884-6.721a.191.191 0 00-.266 0l-6.884 6.72a.765.765 0 01-1.063 0l-9.7-9.47a.721.721 0 010-1.037l2.151-2.1a.765.765 0 011.063 0l6.885 6.72a.191.191 0 00.265 0l6.884-6.72a.765.765 0 011.063 0l6.885 6.72a.191.191 0 00.266 0l6.884-6.72a.765.765 0 011.063 0z"
	      fill="#3B99FC"/>
</svg>
