<svg width="22" height="22" viewBox="0 0 22 22" fill="none" xmlns="http://www.w3.org/2000/svg">
<path d="M9.23594 9.98145C8.68497 9.98145 8.25 10.4402 8.25 11C8.25 11.5597 8.69464 12.0185 9.23594 12.0185C9.78691 12.0185 10.2219 11.5597 10.2219 11C10.2315 10.4402 9.78691 9.98145 9.23594 9.98145ZM12.7641 9.98145C12.2131 9.98145 11.7781 10.4402 11.7781 11C11.7781 11.5597 12.2228 12.0185 12.7641 12.0185C13.315 12.0185 13.75 11.5597 13.75 11C13.75 10.4402 13.315 9.98145 12.7641 9.98145Z" fill="currentColor"/>
<path d="M17.3171 1.8335H4.68286C3.61743 1.8335 2.75 2.67683 2.75 3.72183V16.1152C2.75 17.1602 3.61743 18.0035 4.68286 18.0035H15.3749L14.8751 16.3077L16.082 17.3985L17.2229 18.4252L19.25 20.1668V3.72183C19.25 2.67683 18.3826 1.8335 17.3171 1.8335ZM13.6777 13.8052C13.6777 13.8052 13.3383 13.411 13.0554 13.0627C14.2906 12.7235 14.762 11.9718 14.762 11.9718C14.3754 12.2193 14.0077 12.3935 13.6777 12.5127C13.2063 12.7052 12.7537 12.8335 12.3106 12.9068C11.4054 13.0718 10.5757 13.026 9.86857 12.8977C9.33114 12.7968 8.86914 12.6502 8.48257 12.5035C8.26571 12.421 8.03 12.3202 7.79429 12.1918C7.766 12.1735 7.73771 12.1643 7.70943 12.146C7.69057 12.1368 7.68114 12.1277 7.67171 12.1185C7.502 12.0268 7.40771 11.9627 7.40771 11.9627C7.40771 11.9627 7.86029 12.696 9.05771 13.0443C8.77486 13.3927 8.426 13.8052 8.426 13.8052C6.34229 13.741 5.55029 12.4118 5.55029 12.4118C5.55029 9.46016 6.908 7.06766 6.908 7.06766C8.26571 6.07766 9.55743 6.10516 9.55743 6.10516L9.65171 6.21516C7.95457 6.69183 7.172 7.416 7.172 7.416C7.172 7.416 7.37943 7.306 7.72829 7.15016C8.73714 6.71933 9.53857 6.60016 9.86857 6.57266C9.92514 6.5635 9.97229 6.55433 10.0289 6.55433C10.604 6.481 11.2546 6.46266 11.9334 6.536C12.8291 6.63683 13.7909 6.8935 14.7714 7.416C14.7714 7.416 14.0266 6.7285 12.4237 6.25183L12.5557 6.10516C12.5557 6.10516 13.8474 6.07766 15.2051 7.06766C15.2051 7.06766 16.5629 9.46016 16.5629 12.4118C16.5629 12.4118 15.7614 13.741 13.6777 13.8052Z" fill="currentColor"/>
</svg>
