<svg width="22" height="22" viewBox="0 0 22 22" fill="none" xmlns="http://www.w3.org/2000/svg">
<path d="M12.2915 11.233C12.2915 14.3992 9.74512 16.9659 6.60412 16.9659C3.46312 16.9659 0.916504 14.3992 0.916504 11.233C0.916504 8.06686 3.46293 5.5 6.60412 5.5C9.74532 5.5 12.2915 8.06686 12.2915 11.233Z" fill="currentColor"/>
<path d="M18.5314 11.2331C18.5314 14.2134 17.2582 16.6303 15.6876 16.6303C14.117 16.6303 12.8438 14.2134 12.8438 11.2331C12.8438 8.25288 14.1168 5.83594 15.6874 5.83594C17.258 5.83594 18.5312 8.2521 18.5312 11.2331" fill="currentColor"/>
<path d="M21.0837 11.233C21.0837 13.9026 20.6359 16.068 20.0835 16.068C19.531 16.068 19.0835 13.9031 19.0835 11.233C19.0835 8.56283 19.5312 6.39795 20.0835 6.39795C20.6357 6.39795 21.0837 8.56263 21.0837 11.233Z" fill="currentColor"/>
</svg>
