<svg width="22" height="22" viewBox="0 0 22 22" fill="none" xmlns="http://www.w3.org/2000/svg">
<path fill-rule="evenodd" clip-rule="evenodd" d="M19.3447 5.56337C18.7187 5.83961 18.0471 6.02715 17.3425 6.11078C18.0623 5.67995 18.6148 4.99567 18.8733 4.18215C18.1991 4.58257 17.454 4.87149 16.6608 5.02862C16.0247 4.35195 15.1199 3.92871 14.1163 3.92871C12.1927 3.92871 10.6316 5.48987 10.6316 7.41344C10.6316 7.68715 10.662 7.95326 10.7228 8.20669C7.82606 8.06223 5.25876 6.67341 3.54047 4.56483C3.24142 5.0793 3.06909 5.67741 3.06909 6.31607C3.06909 7.52495 3.68493 8.59191 4.62011 9.21536C4.04988 9.19762 3.5126 9.04049 3.04121 8.77945C3.04121 8.79466 3.04121 8.80733 3.04121 8.82254C3.04121 10.5104 4.24249 11.9195 5.83659 12.2388C5.54514 12.3174 5.23595 12.3605 4.91916 12.3605C4.6936 12.3605 4.47565 12.3377 4.26276 12.2971C4.70627 13.6809 5.99372 14.6896 7.51687 14.7174C6.32319 15.6526 4.82285 16.2102 3.1882 16.2102C2.90689 16.2102 2.63064 16.1924 2.35693 16.162C3.89782 17.1504 5.73015 17.7282 7.69934 17.7282C14.1087 17.7282 17.6137 12.4188 17.6137 7.81387C17.6137 7.66181 17.6112 7.51228 17.6036 7.36275C18.2853 6.87109 18.8758 6.25778 19.3421 5.5583L19.3447 5.56337Z" fill="currentColor"/>
</svg>
