<svg width="24" height="24" viewBox="0 0 24 24" fill="none" xmlns="http://www.w3.org/2000/svg">
    <g>
        <path fill-rule="evenodd" clip-rule="evenodd" d="M16.0789 1L15.5184 3.60762C15.2945 4.64929 14.48 5.46299 13.4373 5.68667L10.8271 6.24663L13.4373 6.80658C14.48 7.03026 15.2945 7.84396 15.5184 8.88563L16.0789 11.4933L16.6394 8.88563C16.8633 7.84396 17.6778 7.03026 18.7205 6.80658L21.3306 6.24663L18.7205 5.68667C17.6778 5.46299 16.8633 4.64929 16.6394 3.60763L16.0789 1ZM16.0789 4.89816C15.7547 5.45715 15.2891 5.92246 14.73 6.24663C15.2891 6.57079 15.7547 7.0361 16.0789 7.59509C16.4031 7.0361 16.8686 6.57079 17.4277 6.24663C16.8686 5.92246 16.4031 5.45715 16.0789 4.89816Z" fill="currentColor"/>
        <path fill-rule="evenodd" clip-rule="evenodd" d="M20.9659 16.4797C19.394 17.5922 17.4736 18.2466 15.3999 18.2466C10.0768 18.2466 5.75997 13.9353 5.75997 8.61503C5.75997 6.54437 6.41406 4.62697 7.52607 3.05721C4.2489 4.70065 2 8.08901 2 12.0008C2 17.5233 6.48148 22.0018 12.0117 22.0018C15.9295 22.0018 19.3213 19.7539 20.9659 16.4797ZM21.7038 14.5177C20.1275 16.1973 17.8864 17.2466 15.3999 17.2466C10.6282 17.2466 6.75997 13.3821 6.75997 8.61503C6.75997 6.13245 7.80906 3.89467 9.48851 2.32001C10.0271 1.81502 10.6305 1.37823 11.285 1.02344C10.4955 1.07482 9.72876 1.20932 8.99337 1.41825C4.37919 2.72921 1 6.97079 1 12.0008C1 18.0765 5.93011 23.0018 12.0117 23.0018C17.0478 23.0018 21.2942 19.6244 22.6055 15.0132C22.8144 14.2785 22.9488 13.5126 23 12.724C22.6453 13.3773 22.2087 13.9799 21.7038 14.5177Z" fill="currentColor"/>
    </g>
</svg>
